<?xml version="1.0" encoding="UTF-8" standalone="no"?>
<!-- Generator: Adobe Illustrator 21.0.0, SVG Export Plug-In . SVG Version: 6.00 Build 0)  -->

<svg
   version="1.1"
   x="0px"
   y="0px"
   viewBox="0 0 302.70001 166.7"
   xml:space="preserve"
   id="svg188"
   sodipodi:docname="grafico_de_barras_apiladasSimple.svg"
   width="302.70001"
   height="166.7"
   inkscape:version="1.4.2 (f4327f4, 2025-05-13)"
   xmlns:inkscape="http://www.inkscape.org/namespaces/inkscape"
   xmlns:sodipodi="http://sodipodi.sourceforge.net/DTD/sodipodi-0.dtd"
   xmlns="http://www.w3.org/2000/svg"
   xmlns:svg="http://www.w3.org/2000/svg"><defs
   id="defs188" /><sodipodi:namedview
   id="namedview188"
   pagecolor="#ffffff"
   bordercolor="#000000"
   borderopacity="0.25"
   inkscape:showpageshadow="2"
   inkscape:pageopacity="0.0"
   inkscape:pagecheckerboard="0"
   inkscape:deskcolor="#d1d1d1"
   inkscape:clip-to-page="false"
   inkscape:zoom="2.0124688"
   inkscape:cx="154.2881"
   inkscape:cy="176.6487"
   inkscape:window-width="1920"
   inkscape:window-height="1009"
   inkscape:window-x="-8"
   inkscape:window-y="-8"
   inkscape:window-maximized="1"
   inkscape:current-layer="svg188" />
<style
   type="text/css"
   id="style1">
	.st0{opacity:0.8;fill:none;stroke:#E6E6E6;}
	.st1{fill:#808080;}
	.st2{fill:none;stroke:#1A1A1A;}
	.st3{fill:#F3646A;}
	.st4{fill:#F68F6A;}
	.st5{fill:#FAB666;}
	.st6{fill:#FFE066;}
	.st7{fill:#C1272D;}
	.st8{fill:#333333;}
	.st9{fill:none;stroke:#333333;}
	.st10{fill:none;stroke:#333333;stroke-width:1.5;}
</style>
<g
   id="Layer_2"
   transform="translate(-20.9,-23.9)">
	<line
   class="st0"
   x1="64.5"
   y1="157.8"
   x2="64.5"
   y2="58.5"
   id="line1" />
	<line
   class="st0"
   x1="105.7"
   y1="157.8"
   x2="105.7"
   y2="58.5"
   id="line2" />
	<line
   class="st0"
   x1="150.10001"
   y1="157.8"
   x2="150.10001"
   y2="58.5"
   id="line3" />
	<line
   class="st0"
   x1="191.5"
   y1="157.8"
   x2="191.5"
   y2="58.5"
   id="line4" />
	<line
   class="st0"
   x1="235.7"
   y1="157.8"
   x2="235.7"
   y2="58.5"
   id="line5" />
	<line
   class="st0"
   x1="279.10001"
   y1="157.8"
   x2="279.10001"
   y2="58.5"
   id="line6" />
	<line
   class="st0"
   x1="322.39999"
   y1="157.8"
   x2="322.39999"
   y2="49"
   id="line7" />
	<g
   id="g7">
		<path
   class="st1"
   d="m 25.8,168.1 c 0,2.4 -0.9,3.8 -2.5,3.8 -1.4,0 -2.3,-1.3 -2.4,-3.7 0,-2.4 1,-3.7 2.5,-3.7 1.5,0 2.4,1.3 2.4,3.6 z m -3.9,0.1 c 0,1.9 0.6,2.9 1.5,2.9 1,0 1.5,-1.2 1.5,-3 0,-1.8 -0.5,-2.9 -1.5,-2.9 -0.9,0 -1.5,1 -1.5,3 z"
   id="path7" />
	</g>
	<g
   id="g8">
		<path
   class="st1"
   d="m 64.9,165.5 v 0 l -1.3,0.7 -0.2,-0.7 1.6,-0.8 h 0.8 v 7.2 h -0.9 z"
   id="path8" />
	</g>
	<g
   id="g9">
		<path
   class="st1"
   d="m 103.6,171.7 v -0.6 l 0.8,-0.7 c 1.8,-1.7 2.7,-2.7 2.7,-3.7 0,-0.7 -0.4,-1.4 -1.4,-1.4 -0.6,0 -1.2,0.3 -1.5,0.6 l -0.3,-0.7 c 0.5,-0.4 1.2,-0.7 2,-0.7 1.5,0 2.2,1.1 2.2,2.1 0,1.3 -1,2.4 -2.5,3.8 l -0.6,0.5 v 0 h 3.2 v 0.8 z"
   id="path9" />
	</g>
	<g
   id="g10">
		<path
   class="st1"
   d="m 148.6,170.6 c 0.3,0.2 0.9,0.5 1.6,0.5 1.2,0 1.6,-0.8 1.6,-1.4 0,-1 -0.9,-1.4 -1.8,-1.4 h -0.5 v -0.7 h 0.5 c 0.7,0 1.6,-0.4 1.6,-1.2 0,-0.6 -0.4,-1.1 -1.3,-1.1 -0.6,0 -1.1,0.3 -1.4,0.5 l -0.3,-0.7 c 0.4,-0.3 1.1,-0.6 1.9,-0.6 1.4,0 2,0.8 2,1.7 0,0.7 -0.4,1.4 -1.3,1.7 v 0 c 0.9,0.2 1.6,0.8 1.6,1.8 0,1.1 -0.9,2.1 -2.6,2.1 -0.8,0 -1.5,-0.3 -1.9,-0.5 z"
   id="path10" />
	</g>
	<g
   id="g11">
		<path
   class="st1"
   d="m 192.1,171.7 v -1.9 h -3.3 v -0.6 l 3.2,-4.6 h 1 v 4.4 h 1 v 0.8 h -1 v 1.9 z m 0,-2.7 v -2.4 c 0,-0.4 0,-0.7 0,-1.1 v 0 c -0.2,0.4 -0.4,0.7 -0.6,1.1 l -1.7,2.4 v 0 z"
   id="path11" />
	</g>
	<g
   id="g27">
		<path
   class="st1"
   d="m 134,181.6 c -0.8,1.1 -1.4,2.5 -1.4,4.5 0,2 0.6,3.4 1.4,4.5 h -0.8 c -0.7,-0.9 -1.4,-2.3 -1.4,-4.5 0,-2.2 0.7,-3.6 1.4,-4.5 z"
   id="path12" />
		<path
   class="st1"
   d="M 138.9,185.8 H 136 v 2.7 h 3.2 v 0.8 H 135 v -7.4 h 4 v 0.8 h -3 v 2.3 h 2.9 z"
   id="path13" />
		<path
   class="st1"
   d="m 140.3,188.2 c 0.3,0.2 0.8,0.4 1.3,0.4 0.7,0 1,-0.4 1,-0.8 0,-0.5 -0.3,-0.7 -1,-1 -1,-0.3 -1.4,-0.9 -1.4,-1.5 0,-0.9 0.7,-1.6 1.8,-1.6 0.5,0 1,0.2 1.3,0.3 l -0.2,0.7 c -0.2,-0.1 -0.6,-0.3 -1.1,-0.3 -0.6,0 -0.9,0.3 -0.9,0.7 0,0.4 0.3,0.6 1,0.9 0.9,0.4 1.4,0.8 1.4,1.6 0,0.9 -0.7,1.6 -2,1.6 -0.6,0 -1.1,-0.1 -1.5,-0.4 z"
   id="path14" />
		<path
   class="st1"
   d="m 148.6,189 c -0.3,0.1 -0.8,0.3 -1.5,0.3 -1.6,0 -2.7,-1.1 -2.7,-2.7 0,-1.6 1.1,-2.8 2.9,-2.8 0.6,0 1.1,0.1 1.3,0.3 l -0.2,0.7 c -0.2,-0.1 -0.6,-0.3 -1.1,-0.3 -1.2,0 -1.9,0.9 -1.9,2 0,1.2 0.8,2 1.8,2 0.6,0 0.9,-0.1 1.2,-0.3 z"
   id="path15" />
		<path
   class="st1"
   d="m 152.7,189.2 -0.1,-0.7 v 0 c -0.3,0.4 -0.9,0.8 -1.6,0.8 -1.1,0 -1.6,-0.8 -1.6,-1.5 0,-1.3 1.1,-2 3.2,-2 v -0.1 c 0,-0.4 -0.1,-1.2 -1.2,-1.2 -0.5,0 -1,0.2 -1.4,0.4 l -0.2,-0.6 c 0.4,-0.3 1.1,-0.5 1.7,-0.5 1.6,0 2,1.1 2,2.2 v 2 c 0,0.5 0,0.9 0.1,1.3 h -0.9 z m -0.2,-2.7 c -1.1,0 -2.3,0.2 -2.3,1.2 0,0.6 0.4,0.9 0.9,0.9 0.7,0 1.1,-0.4 1.3,-0.9 0,-0.1 0.1,-0.2 0.1,-0.3 z"
   id="path16" />
		<path
   class="st1"
   d="m 155,181.4 h 1 v 7.8 h -1 z"
   id="path17" />
		<path
   class="st1"
   d="m 160.6,189.2 -0.1,-0.7 v 0 c -0.3,0.4 -0.9,0.8 -1.6,0.8 -1.1,0 -1.6,-0.8 -1.6,-1.5 0,-1.3 1.1,-2 3.2,-2 v -0.1 c 0,-0.4 -0.1,-1.2 -1.2,-1.2 -0.5,0 -1,0.2 -1.4,0.4 l -0.2,-0.6 c 0.4,-0.3 1.1,-0.5 1.7,-0.5 1.6,0 2,1.1 2,2.2 v 2 c 0,0.5 0,0.9 0.1,1.3 h -0.9 z m -0.2,-2.7 c -1.1,0 -2.3,0.2 -2.3,1.2 0,0.6 0.4,0.9 0.9,0.9 0.7,0 1.1,-0.4 1.3,-0.9 0,-0.1 0.1,-0.2 0.1,-0.3 z"
   id="path18" />
		<path
   class="st1"
   d="m 169.8,181.4 v 6.4 c 0,0.5 0,1 0,1.4 H 169 v -0.9 0 c -0.3,0.6 -0.9,1 -1.8,1 -1.3,0 -2.3,-1.1 -2.3,-2.7 0,-1.8 1.1,-2.9 2.4,-2.9 0.8,0 1.4,0.4 1.6,0.8 v 0 -3.2 h 0.9 z m -0.9,4.7 c 0,-0.1 0,-0.3 0,-0.4 -0.1,-0.6 -0.7,-1.1 -1.4,-1.1 -1,0 -1.6,0.9 -1.6,2.1 0,1.1 0.5,2 1.6,2 0.6,0 1.2,-0.4 1.4,-1.2 0,-0.1 0,-0.3 0,-0.4 z"
   id="path19" />
		<path
   class="st1"
   d="m 172,186.7 c 0,1.3 0.9,1.8 1.8,1.8 0.7,0 1.1,-0.1 1.5,-0.3 l 0.2,0.7 c -0.3,0.2 -0.9,0.3 -1.8,0.3 -1.6,0 -2.6,-1.1 -2.6,-2.7 0,-1.6 0.9,-2.9 2.5,-2.9 1.7,0 2.2,1.5 2.2,2.5 0,0.2 0,0.4 0,0.5 H 172 Z m 2.8,-0.6 c 0,-0.6 -0.3,-1.6 -1.3,-1.6 -1,0 -1.4,0.9 -1.5,1.6 z"
   id="path20" />
		<path
   class="st1"
   d="m 179.7,183.9 1,3 c 0.2,0.5 0.3,0.9 0.4,1.4 v 0 c 0.1,-0.4 0.3,-0.9 0.5,-1.4 l 1,-3 h 1 l -2.1,5.3 h -0.9 l -2,-5.3 z"
   id="path21" />
		<path
   class="st1"
   d="m 187.5,189.2 -0.1,-0.7 v 0 c -0.3,0.4 -0.9,0.8 -1.6,0.8 -1.1,0 -1.6,-0.8 -1.6,-1.5 0,-1.3 1.1,-2 3.2,-2 v -0.1 c 0,-0.4 -0.1,-1.2 -1.2,-1.2 -0.5,0 -1,0.2 -1.4,0.4 l -0.2,-0.6 c 0.4,-0.3 1.1,-0.5 1.7,-0.5 1.6,0 2,1.1 2,2.2 v 2 c 0,0.5 0,0.9 0.1,1.3 h -0.9 z m -0.2,-2.7 c -1.1,0 -2.3,0.2 -2.3,1.2 0,0.6 0.4,0.9 0.9,0.9 0.7,0 1.1,-0.4 1.3,-0.9 0,-0.1 0.1,-0.2 0.1,-0.3 z"
   id="path22" />
		<path
   class="st1"
   d="m 189.8,181.4 h 1 v 7.8 h -1 z"
   id="path23" />
		<path
   class="st1"
   d="m 197.3,186.5 c 0,2 -1.4,2.8 -2.7,2.8 -1.4,0 -2.6,-1.1 -2.6,-2.7 0,-1.8 1.2,-2.8 2.6,-2.8 1.6,0 2.7,1.1 2.7,2.7 z m -4.3,0.1 c 0,1.2 0.7,2 1.6,2 0.9,0 1.6,-0.9 1.6,-2.1 0,-0.9 -0.5,-2 -1.6,-2 -1.1,0 -1.6,1.1 -1.6,2.1 z"
   id="path24" />
		<path
   class="st1"
   d="m 198.5,185.6 c 0,-0.6 0,-1.2 0,-1.7 h 0.8 v 1 0 c 0.2,-0.7 0.8,-1.2 1.5,-1.2 0.1,0 0.2,0 0.3,0 v 0.9 c -0.1,0 -0.2,0 -0.3,0 -0.7,0 -1.2,0.5 -1.3,1.2 0,0.1 0,0.3 0,0.5 v 2.8 h -1 z"
   id="path25" />
		<path
   class="st1"
   d="m 202.5,186.7 c 0,1.3 0.9,1.8 1.8,1.8 0.7,0 1.1,-0.1 1.5,-0.3 l 0.2,0.7 c -0.3,0.2 -0.9,0.3 -1.8,0.3 -1.6,0 -2.6,-1.1 -2.6,-2.7 0,-1.6 0.9,-2.9 2.5,-2.9 1.7,0 2.2,1.5 2.2,2.5 0,0.2 0,0.4 0,0.5 h -3.8 z m 2.8,-0.6 c 0,-0.6 -0.3,-1.6 -1.3,-1.6 -1,0 -1.4,0.9 -1.5,1.6 z"
   id="path26" />
		<path
   class="st1"
   d="m 206.9,190.6 c 0.8,-1.1 1.4,-2.5 1.4,-4.5 0,-2 -0.6,-3.4 -1.4,-4.5 h 0.7 c 0.7,0.9 1.4,2.3 1.4,4.5 0,2.2 -0.7,3.6 -1.4,4.5 z"
   id="path27" />
	</g>
	
	<g
   id="g48">
		<path
   class="st1"
   d="m 238.2,165.4 h -2.7 l -0.3,1.8 c 0.2,0 0.3,0 0.6,0 0.5,0 1.1,0.1 1.5,0.4 0.6,0.3 1,0.9 1,1.8 0,1.4 -1.1,2.4 -2.7,2.4 -0.8,0 -1.4,-0.2 -1.8,-0.4 l 0.2,-0.7 c 0.3,0.2 0.9,0.4 1.5,0.4 0.9,0 1.7,-0.6 1.7,-1.6 0,-0.9 -0.6,-1.6 -2.1,-1.6 -0.4,0 -0.7,0 -1,0.1 l 0.5,-3.4 h 3.4 v 0.8 z"
   id="path48" />
	</g>
	<g
   id="g49">
		<path
   class="st1"
   d="m 280.8,165.3 c -0.2,0 -0.5,0 -0.7,0 -1.5,0.3 -2.3,1.4 -2.5,2.5 v 0 c 0.3,-0.5 0.9,-0.8 1.7,-0.8 1.3,0 2.2,0.9 2.2,2.3 0,1.3 -0.9,2.5 -2.4,2.5 -1.5,0 -2.5,-1.2 -2.5,-3 0,-1.4 0.5,-2.5 1.2,-3.2 0.6,-0.6 1.4,-0.9 2.3,-1.1 0.3,0 0.5,-0.1 0.7,-0.1 z m -0.3,4.1 c 0,-1 -0.6,-1.6 -1.5,-1.6 -0.6,0 -1.1,0.4 -1.4,0.9 -0.1,0.1 -0.1,0.3 -0.1,0.4 0,1.2 0.6,2 1.6,2 0.8,0 1.4,-0.7 1.4,-1.7 z"
   id="path49" />
	</g>
	<g
   id="g50">
		<path
   class="st1"
   d="m 323.6,164.6 v 0.6 l -3.1,6.5 h -1 l 3.1,-6.3 v 0 h -3.5 v -0.8 z"
   id="path50" />
	</g>
	<line
   class="st2"
   x1="25"
   y1="158.5"
   x2="323"
   y2="158.5"
   id="line50" />
	<line
   class="st2"
   x1="64.5"
   y1="158.8"
   x2="64.5"
   y2="154.7"
   id="line51" />
	<line
   class="st2"
   x1="105.8"
   y1="158.8"
   x2="105.8"
   y2="154.7"
   id="line52" />
	<line
   class="st2"
   x1="150.10001"
   y1="158.8"
   x2="150.10001"
   y2="154.7"
   id="line53" />
	<line
   class="st2"
   x1="191.5"
   y1="158.8"
   x2="191.5"
   y2="154.7"
   id="line54" />
	<line
   class="st2"
   x1="235.8"
   y1="158.8"
   x2="235.8"
   y2="154.7"
   id="line55" />
	<line
   class="st2"
   x1="279.10001"
   y1="158.8"
   x2="279.10001"
   y2="154.7"
   id="line56" />
	<line
   class="st2"
   x1="322.39999"
   y1="158.60001"
   x2="322.39999"
   y2="154.7"
   id="line57" />
	<line
   class="st2"
   x1="25.5"
   y1="158"
   x2="25.5"
   y2="58.799999"
   id="line58" />
	<line
   class="st2"
   x1="22.9"
   y1="58.200001"
   x2="28"
   y2="58.200001"
   id="line59" />
	<polyline
   class="st3"
   points="279.6,109.8 191.1,109.8 191.1,147.2 279.6,147.2 279.6,109.8  "
   id="polyline59" />
	<path
   class="st4"
   d="m 150.3,147.2 v 0 0 m 40.9,-37.4 h -40.9 v 37.3 h 40.9 v -37.3"
   id="path59" />
	<path
   class="st5"
   d="m 62.8,147.2 v 0 0 m 87.7,-37.4 H 62.8 v 37.3 h 87.7 v -37.3"
   id="path60" />
	<polyline
   class="st6"
   points="65.1,109.8 26,109.8 26,147.2 65.1,147.2 65.1,109.8  "
   id="polyline60" />
	
	
	
	
	
	
	
	
	
	
	
	
	
	
	
	
	
	
	
	
	
	
	
	
	
	
	
	
	
	
	
	
	
	
	
	
	
	
</g>
<g
   id="Layer_1"
   transform="translate(-20.9,-23.9)">
	<g
   id="g119">
		<path
   class="st7"
   d="m 25.4,33.8 c 0.2,0.3 0.4,0.5 0.6,0.7 0.3,0.2 0.6,0.3 0.9,0.4 0.3,0.1 0.7,0.1 1.1,0.1 0.3,0 0.5,0 0.8,-0.1 0.3,0 0.6,-0.1 0.8,-0.2 0.2,-0.1 0.5,-0.3 0.6,-0.5 0.2,-0.2 0.3,-0.5 0.3,-0.8 0,-0.3 -0.1,-0.6 -0.3,-0.8 C 30,32.4 29.7,32.2 29.3,32.1 28.9,32 28.5,31.8 28.1,31.7 27.6,31.6 27.2,31.5 26.7,31.3 26.2,31.2 25.8,31 25.3,30.9 24.8,30.7 24.4,30.5 24.1,30.2 23.7,29.9 23.4,29.6 23.2,29.2 23,28.8 22.9,28.3 22.9,27.7 22.9,27 23,26.5 23.3,26 c 0.3,-0.5 0.7,-0.9 1.1,-1.2 0.4,-0.3 1,-0.6 1.5,-0.7 0.6,-0.2 1.2,-0.2 1.7,-0.2 0.7,0 1.3,0.1 1.9,0.2 0.6,0.2 1.2,0.4 1.6,0.7 0.4,0.3 0.9,0.8 1.1,1.3 0.3,0.5 0.4,1.2 0.4,1.9 h -2.7 c 0,-0.4 -0.1,-0.7 -0.2,-1 C 29.6,26.7 29.4,26.6 29.2,26.4 29,26.3 28.7,26.2 28.4,26.1 28.1,26 27.8,26 27.4,26 c -0.2,0 -0.5,0 -0.7,0.1 -0.2,0 -0.4,0.1 -0.6,0.3 -0.2,0.1 -0.3,0.3 -0.5,0.5 -0.1,0.2 -0.2,0.4 -0.2,0.7 0,0.3 0,0.5 0.1,0.6 0.1,0.2 0.3,0.3 0.6,0.4 0.3,0.1 0.7,0.3 1.2,0.4 0.5,0.1 1.1,0.3 2,0.5 0.2,0 0.6,0.1 1,0.3 0.4,0.1 0.8,0.3 1.3,0.6 0.4,0.3 0.8,0.6 1.1,1.1 0.3,0.5 0.5,1.1 0.5,1.8 0,0.6 -0.1,1.1 -0.3,1.6 -0.2,0.5 -0.6,0.9 -1,1.3 -0.5,0.4 -1,0.7 -1.7,0.9 -0.7,0.2 -1.4,0.3 -2.3,0.3 -0.7,0 -1.4,-0.1 -2.1,-0.3 -0.7,-0.2 -1.3,-0.4 -1.8,-0.8 -0.5,-0.4 -0.9,-0.8 -1.2,-1.4 -0.3,-0.6 -0.4,-1.3 -0.4,-2.1 h 2.7 c 0.1,0.4 0.1,0.7 0.3,1 z"
   id="path114" />
		<path
   class="st7"
   d="m 35.2,26.3 v -2.1 h 2.6 v 2.1 z m 2.5,1.4 V 37 h -2.6 v -9.3 z"
   id="path115" />
		<path
   class="st7"
   d="m 42.7,27.7 v 1.3 0 c 0.3,-0.5 0.7,-0.9 1.2,-1.1 0.5,-0.3 1,-0.4 1.6,-0.4 0.6,0 1.1,0.1 1.6,0.3 0.5,0.2 0.9,0.6 1.1,1.2 0.3,-0.4 0.7,-0.8 1.1,-1.1 0.5,-0.3 1,-0.5 1.7,-0.5 0.5,0 0.9,0.1 1.4,0.2 0.4,0.1 0.8,0.3 1.1,0.6 0.3,0.3 0.5,0.6 0.7,1 0.2,0.4 0.3,0.9 0.3,1.5 V 37 h -2.6 v -5.3 c 0,-0.3 0,-0.6 0,-0.9 0,-0.3 -0.1,-0.5 -0.2,-0.7 -0.1,-0.2 -0.3,-0.4 -0.5,-0.5 -0.2,-0.1 -0.5,-0.2 -0.9,-0.2 -0.4,0 -0.7,0.1 -0.9,0.2 -0.2,0.1 -0.4,0.3 -0.5,0.5 -0.1,0.2 -0.2,0.5 -0.3,0.8 0,0.3 -0.1,0.6 -0.1,0.9 V 37 h -2.6 v -5.2 c 0,-0.3 0,-0.5 0,-0.8 0,-0.3 -0.1,-0.5 -0.2,-0.7 -0.1,-0.2 -0.2,-0.4 -0.5,-0.5 -0.3,-0.1 -0.5,-0.2 -0.9,-0.2 -0.1,0 -0.3,0 -0.5,0.1 -0.2,0.1 -0.4,0.2 -0.6,0.3 -0.2,0.2 -0.3,0.4 -0.5,0.6 -0.1,0.3 -0.2,0.7 -0.2,1.1 V 37 h -2.6 v -9.3 z"
   id="path116" />
		<path
   class="st7"
   d="m 59.4,27.7 v 1.2 0 c 0.3,-0.5 0.7,-0.9 1.2,-1.1 0.5,-0.2 1,-0.3 1.6,-0.3 0.7,0 1.4,0.1 1.9,0.4 0.5,0.3 1,0.6 1.3,1.1 0.3,0.5 0.6,1 0.8,1.6 0.2,0.6 0.3,1.2 0.3,1.9 0,0.6 -0.1,1.2 -0.3,1.8 -0.2,0.6 -0.4,1.1 -0.8,1.5 -0.3,0.4 -0.8,0.8 -1.3,1.1 -0.5,0.3 -1.1,0.4 -1.8,0.4 -0.6,0 -1.1,-0.1 -1.6,-0.4 -0.5,-0.2 -0.9,-0.6 -1.2,-1 v 0 4.4 H 57 V 27.7 Z m 3.3,7.4 c 0.3,-0.2 0.5,-0.4 0.7,-0.7 0.2,-0.3 0.3,-0.6 0.4,-0.9 0.1,-0.4 0.1,-0.7 0.1,-1.1 0,-0.4 0,-0.7 -0.1,-1.1 -0.1,-0.4 -0.2,-0.7 -0.4,-1 -0.2,-0.3 -0.4,-0.5 -0.7,-0.7 -0.3,-0.2 -0.6,-0.3 -1,-0.3 -0.4,0 -0.8,0.1 -1.1,0.3 -0.3,0.2 -0.5,0.4 -0.7,0.7 -0.2,0.3 -0.3,0.6 -0.4,1 -0.1,0.4 -0.1,0.7 -0.1,1.1 0,0.4 0,0.7 0.1,1.1 0.1,0.4 0.2,0.7 0.4,0.9 0.2,0.3 0.4,0.5 0.7,0.7 0.3,0.2 0.6,0.3 1,0.3 0.5,-0.1 0.8,-0.2 1.1,-0.3 z"
   id="path117" />
		<path
   class="st7"
   d="M 71,24.1 V 37 H 68.4 V 24.1 Z"
   id="path118" />
		<path
   class="st7"
   d="m 76.2,34.8 c 0.4,0.4 0.9,0.6 1.7,0.6 0.5,0 1,-0.1 1.3,-0.4 0.4,-0.3 0.6,-0.5 0.7,-0.8 h 2.2 c -0.4,1.1 -0.9,1.9 -1.7,2.4 -0.7,0.5 -1.6,0.7 -2.7,0.7 -0.7,0 -1.4,-0.1 -2,-0.4 -0.6,-0.3 -1.1,-0.6 -1.5,-1 -0.4,-0.4 -0.7,-0.9 -0.9,-1.5 -0.2,-0.6 -0.3,-1.3 -0.3,-2 0,-0.7 0.1,-1.3 0.3,-1.9 0.2,-0.6 0.6,-1.1 1,-1.6 0.4,-0.4 0.9,-0.8 1.5,-1 0.6,-0.2 1.2,-0.4 1.9,-0.4 0.8,0 1.5,0.2 2.1,0.5 0.6,0.3 1.1,0.7 1.4,1.2 0.3,0.5 0.7,1.1 0.8,1.8 0.2,0.7 0.2,1.4 0.2,2.1 h -6.7 c 0.1,0.7 0.4,1.3 0.7,1.7 z m 2.9,-4.9 c -0.3,-0.3 -0.8,-0.5 -1.4,-0.5 -0.4,0 -0.7,0.1 -1,0.2 -0.3,0.1 -0.5,0.3 -0.6,0.5 -0.1,0.2 -0.3,0.4 -0.3,0.6 -0.1,0.2 -0.1,0.4 -0.1,0.6 h 4.2 c -0.3,-0.6 -0.5,-1.1 -0.8,-1.4 z"
   id="path119" />
	</g>
	
	<g
   id="g124">
		<path
   class="st8"
   d="m 103.1,99.5 v -1.1 l 1.1,-1 c 2.1,-2 3.2,-3.1 3.2,-4.3 0,-0.8 -0.4,-1.5 -1.6,-1.5 -0.8,0 -1.5,0.4 -1.9,0.8 l -0.5,-1.2 c 0.7,-0.5 1.7,-0.9 2.8,-0.9 2,0 3,1.3 3,2.8 0,1.6 -1.1,2.9 -2.7,4.4 l -0.8,0.7 v 0 h 3.7 v 1.4 h -6.3 z"
   id="path124" />
	</g>
	<g
   id="g131">
		<path
   class="st8"
   d="m 123.8,60.5 h -2.7 v -1.4 h 7.1 v 1.4 h -2.7 v 8 h -1.7 z"
   id="path125" />
		<path
   class="st8"
   d="m 137.7,63.7 c 0,3.2 -1.9,5 -4.5,5 -2.7,0 -4.3,-2 -4.3,-4.8 0,-2.9 1.8,-4.9 4.5,-4.9 2.7,-0.1 4.3,2 4.3,4.7 z m -7.1,0.1 c 0,1.9 1,3.4 2.6,3.4 1.7,0 2.6,-1.5 2.6,-3.5 0,-1.8 -0.9,-3.5 -2.6,-3.5 -1.7,0.1 -2.6,1.7 -2.6,3.6 z"
   id="path126" />
		<path
   class="st8"
   d="m 140.9,60.5 h -2.7 v -1.4 h 7.1 v 1.4 h -2.7 v 8 h -1.7 z"
   id="path127" />
		<path
   class="st8"
   d="m 147.7,65.8 -0.8,2.7 h -1.8 l 3,-9.4 h 2.2 l 3.1,9.4 h -1.8 l -0.9,-2.7 z m 2.7,-1.3 -0.7,-2.3 c -0.2,-0.6 -0.3,-1.2 -0.5,-1.8 v 0 c -0.1,0.5 -0.3,1.2 -0.4,1.8 l -0.7,2.3 z"
   id="path128" />
		<path
   class="st8"
   d="m 155.1,59.1 h 1.7 v 8 h 3.9 v 1.4 h -5.6 z"
   id="path129" />
		<path
   class="st8"
   d="m 165.1,63.9 v -1.1 h 7.2 v 1.1 z m 0,2.8 v -1.1 h 7.2 v 1.1 z"
   id="path130" />
		<path
   class="st8"
   d="m 185.9,60.6 c -0.3,0 -0.5,0 -0.9,0 -1.9,0.2 -2.8,1.4 -3.1,2.7 v 0 c 0.4,-0.5 1.1,-0.9 2,-0.9 1.6,0 2.8,1.1 2.8,3 0,1.7 -1.3,3.2 -3.2,3.2 -2.2,0 -3.4,-1.7 -3.4,-3.9 0,-1.8 0.6,-3.2 1.6,-4.1 0.8,-0.8 1.9,-1.2 3.2,-1.3 0.4,0 0.7,0 0.9,0 z m -0.8,4.9 c 0,-1.1 -0.6,-1.8 -1.6,-1.8 -0.6,0 -1.2,0.4 -1.5,0.9 -0.1,0.1 -0.1,0.3 -0.1,0.5 0,1.2 0.6,2.2 1.7,2.2 0.9,0.1 1.5,-0.7 1.5,-1.8 z"
   id="path131" />
	</g>
	<g
   id="g132">
		<path
   class="st8"
   d="m 232.1,99.5 v -1.1 l 1.1,-1 c 2.1,-2 3.2,-3.1 3.2,-4.3 0,-0.8 -0.4,-1.5 -1.6,-1.5 -0.8,0 -1.5,0.4 -1.9,0.8 l -0.5,-1.2 c 0.7,-0.5 1.7,-0.9 2.8,-0.9 2,0 3,1.3 3,2.8 0,1.6 -1.1,2.9 -2.7,4.4 l -0.8,0.7 v 0 h 3.7 v 1.4 h -6.3 z"
   id="path132" />
	</g>
	<g
   id="g133">
		<path
   class="st8"
   d="m 43.8,92 v 0 l -1.7,0.8 -0.3,-1.3 2.2,-1.1 h 1.4 v 9.1 H 43.7 V 92 Z"
   id="path133" />
	</g>
	<g
   id="g134">
		<path
   class="st8"
   d="m 169.8,92 v 0 l -1.7,0.8 -0.3,-1.3 2.2,-1.1 h 1.4 v 9.1 h -1.7 V 92 Z"
   id="path134" />
	</g>
	<polyline
   class="st9"
   points="30.2,108.5 27.7,106.1 30.2,103.6  "
   id="polyline134" />
	<polyline
   class="st9"
   points="61,103.6 63.5,106.1 61,108.5  "
   id="polyline135" />
	<line
   class="st9"
   x1="28"
   y1="106.1"
   x2="63.400002"
   y2="106.1"
   id="line135" />
	<polyline
   class="st9"
   points="153.8,108.5 151.3,106.1 153.8,103.6  "
   id="polyline136" />
	<polyline
   class="st9"
   points="187.9,103.6 190.3,106.1 187.9,108.5  "
   id="polyline137" />
	<line
   class="st9"
   x1="151.8"
   y1="106.1"
   x2="189.8"
   y2="106.1"
   id="line137" />
	<polyline
   class="st9"
   points="68.1,108.5 65.6,106.1 68.1,103.6  "
   id="polyline138" />
	<polyline
   class="st9"
   points="146.4,103.6 148.9,106.1 146.4,108.5  "
   id="polyline139" />
	<line
   class="st9"
   x1="65.5"
   y1="106.1"
   x2="148.5"
   y2="106.1"
   id="line139" />
	<polyline
   class="st9"
   points="31.3,79.9 27.8,76.4 31.3,72.9  "
   id="polyline140" />
	<polyline
   class="st9"
   points="274.8,72.9 278.2,76.4 274.8,79.9  "
   id="polyline141" />
	<line
   class="st10"
   x1="27.799999"
   y1="76.400002"
   x2="277.79999"
   y2="76.400002"
   id="line141" />
	<g
   id="g150">
		
		
		
		
		
		
		
		
		
		
	</g>
	
	
	
	<polyline
   class="st9"
   points="194.9,108.5 192.4,106.1 194.9,103.6  "
   id="polyline152" />
	<polyline
   class="st9"
   points="275.4,103.6 277.9,106.1 275.4,108.5  "
   id="polyline153" />
	<line
   class="st9"
   x1="193.10001"
   y1="106.1"
   x2="277.39999"
   y2="106.1"
   id="line153" />
	
	
	
	
	
	
	
	
	
	
	
	
	
	
	
	
	<g
   id="g179">
	</g>
	<g
   id="g180">
	</g>
	<g
   id="g181">
	</g>
	<g
   id="g182">
	</g>
	<g
   id="g183">
	</g>
	<g
   id="g184">
	</g>
	<g
   id="g185">
	</g>
	<g
   id="g186">
	</g>
	<g
   id="g187">
	</g>
	<g
   id="g188">
	</g>
</g>
</svg>
