<?xml version="1.0" encoding="UTF-8" standalone="no"?>
<!-- Generator: Adobe Illustrator 21.0.0, SVG Export Plug-In . SVG Version: 6.00 Build 0)  -->

<svg
   version="1.1"
   x="0px"
   y="0px"
   viewBox="0 0 314.4 166.49999"
   xml:space="preserve"
   id="svg188"
   sodipodi:docname="grafico_de_barras_apiladas100.svg"
   width="315.186"
   height="166.91624"
   inkscape:version="1.4.2 (f4327f4, 2025-05-13)"
   xmlns:inkscape="http://www.inkscape.org/namespaces/inkscape"
   xmlns:sodipodi="http://sodipodi.sourceforge.net/DTD/sodipodi-0.dtd"
   xmlns="http://www.w3.org/2000/svg"
   xmlns:svg="http://www.w3.org/2000/svg"><defs
   id="defs188" /><sodipodi:namedview
   id="namedview188"
   pagecolor="#ffffff"
   bordercolor="#000000"
   borderopacity="0.25"
   inkscape:showpageshadow="2"
   inkscape:pageopacity="0.0"
   inkscape:pagecheckerboard="false"
   inkscape:deskcolor="#d1d1d1"
   inkscape:clip-to-page="true"
   inkscape:zoom="2.0124688"
   inkscape:cx="163.72924"
   inkscape:cy="190.56196"
   inkscape:window-width="1920"
   inkscape:window-height="1009"
   inkscape:window-x="-8"
   inkscape:window-y="-8"
   inkscape:window-maximized="1"
   inkscape:current-layer="Layer_1" />
<style
   type="text/css"
   id="style1">
	.st0{opacity:0.8;fill:none;stroke:#E6E6E6;}
	.st1{fill:#808080;}
	.st2{fill:none;stroke:#1A1A1A;}
	.st3{fill:#F3646A;}
	.st4{fill:#F68F6A;}
	.st5{fill:#FAB666;}
	.st6{fill:#FFE066;}
	.st7{fill:#C1272D;}
	.st8{fill:#333333;}
	.st9{fill:none;stroke:#333333;}
	.st10{fill:none;stroke:#333333;stroke-width:1.5;}
</style>
<g
   id="Layer_2"
   transform="translate(-20.9,-213)">
	
	
	
	
	
	
	
	
	
	
	
	
	
	<g
   id="g47">
		<path
   class="st1"
   d="m 123.4,369.6 c -0.8,1.1 -1.4,2.5 -1.4,4.5 0,2 0.6,3.4 1.4,4.5 h -0.8 c -0.7,-0.9 -1.4,-2.3 -1.4,-4.5 0,-2.2 0.7,-3.6 1.4,-4.5 z"
   id="path28" />
		<path
   class="st1"
   d="m 128.3,373.8 h -2.9 v 2.7 h 3.2 v 0.8 h -4.2 v -7.4 h 4 v 0.8 h -3 v 2.3 h 2.9 z"
   id="path29" />
		<path
   class="st1"
   d="m 129.7,376.2 c 0.3,0.2 0.8,0.4 1.3,0.4 0.7,0 1,-0.4 1,-0.8 0,-0.5 -0.3,-0.7 -1,-1 -1,-0.3 -1.4,-0.9 -1.4,-1.5 0,-0.9 0.7,-1.6 1.8,-1.6 0.5,0 1,0.2 1.3,0.3 l -0.2,0.7 c -0.2,-0.1 -0.6,-0.3 -1.1,-0.3 -0.6,0 -0.9,0.3 -0.9,0.7 0,0.4 0.3,0.6 1,0.9 0.9,0.4 1.4,0.8 1.4,1.6 0,0.9 -0.7,1.6 -2,1.6 -0.6,0 -1.1,-0.1 -1.5,-0.4 z"
   id="path30" />
		<path
   class="st1"
   d="m 138,377 c -0.3,0.1 -0.8,0.3 -1.5,0.3 -1.6,0 -2.7,-1.1 -2.7,-2.7 0,-1.6 1.1,-2.8 2.9,-2.8 0.6,0 1.1,0.1 1.3,0.3 l -0.2,0.7 c -0.2,-0.1 -0.6,-0.3 -1.1,-0.3 -1.2,0 -1.9,0.9 -1.9,2 0,1.2 0.8,2 1.8,2 0.6,0 0.9,-0.1 1.2,-0.3 z"
   id="path31" />
		<path
   class="st1"
   d="m 142.1,377.2 -0.1,-0.7 v 0 c -0.3,0.4 -0.9,0.8 -1.6,0.8 -1.1,0 -1.6,-0.8 -1.6,-1.5 0,-1.3 1.1,-2 3.2,-2 v -0.1 c 0,-0.4 -0.1,-1.2 -1.2,-1.2 -0.5,0 -1,0.2 -1.4,0.4 l -0.2,-0.6 c 0.4,-0.3 1.1,-0.5 1.7,-0.5 1.6,0 2,1.1 2,2.2 v 2 c 0,0.5 0,0.9 0.1,1.3 h -0.9 z m -0.2,-2.7 c -1.1,0 -2.3,0.2 -2.3,1.2 0,0.6 0.4,0.9 0.9,0.9 0.7,0 1.1,-0.4 1.3,-0.9 0,-0.1 0.1,-0.2 0.1,-0.3 z"
   id="path32" />
		<path
   class="st1"
   d="m 144.4,369.4 h 1 v 7.8 h -1 z"
   id="path33" />
		<path
   class="st1"
   d="m 150,377.2 -0.1,-0.7 v 0 c -0.3,0.4 -0.9,0.8 -1.6,0.8 -1.1,0 -1.6,-0.8 -1.6,-1.5 0,-1.3 1.1,-2 3.2,-2 v -0.1 c 0,-0.4 -0.1,-1.2 -1.2,-1.2 -0.5,0 -1,0.2 -1.4,0.4 l -0.2,-0.6 c 0.4,-0.3 1.1,-0.5 1.7,-0.5 1.6,0 2,1.1 2,2.2 v 2 c 0,0.5 0,0.9 0.1,1.3 H 150 Z m -0.2,-2.7 c -1.1,0 -2.3,0.2 -2.3,1.2 0,0.6 0.4,0.9 0.9,0.9 0.7,0 1.1,-0.4 1.3,-0.9 0,-0.1 0.1,-0.2 0.1,-0.3 z"
   id="path34" />
		<path
   class="st1"
   d="m 159.3,369.4 v 6.4 c 0,0.5 0,1 0,1.4 h -0.9 v -0.9 0 c -0.3,0.6 -0.9,1 -1.8,1 -1.3,0 -2.3,-1.1 -2.3,-2.7 0,-1.8 1.1,-2.9 2.4,-2.9 0.8,0 1.4,0.4 1.6,0.8 v 0 -3.2 h 1 z m -1,4.7 c 0,-0.1 0,-0.3 0,-0.4 -0.1,-0.6 -0.7,-1.1 -1.4,-1.1 -1,0 -1.6,0.9 -1.6,2.1 0,1.1 0.5,2 1.6,2 0.6,0 1.2,-0.4 1.4,-1.2 0,-0.1 0,-0.3 0,-0.4 z"
   id="path35" />
		<path
   class="st1"
   d="m 161.4,374.7 c 0,1.3 0.9,1.8 1.8,1.8 0.7,0 1.1,-0.1 1.5,-0.3 l 0.2,0.7 c -0.3,0.2 -0.9,0.3 -1.8,0.3 -1.6,0 -2.6,-1.1 -2.6,-2.7 0,-1.6 0.9,-2.9 2.5,-2.9 1.7,0 2.2,1.5 2.2,2.5 0,0.2 0,0.4 0,0.5 h -3.8 z m 2.8,-0.6 c 0,-0.6 -0.3,-1.6 -1.3,-1.6 -1,0 -1.4,0.9 -1.5,1.6 z"
   id="path36" />
		<path
   class="st1"
   d="m 168.7,373.6 c 0,-0.7 0,-1.2 0,-1.7 h 0.9 v 0.9 0 c 0.4,-0.6 1,-1 1.9,-1 1.3,0 2.3,1.1 2.3,2.7 0,1.9 -1.2,2.9 -2.4,2.9 -0.7,0 -1.3,-0.3 -1.6,-0.8 v 0 2.9 h -1 v -5.9 z m 1,1.5 c 0,0.1 0,0.3 0,0.4 0.2,0.7 0.8,1.1 1.5,1.1 1,0 1.6,-0.8 1.6,-2.1 0,-1.1 -0.6,-2 -1.6,-2 -0.7,0 -1.3,0.5 -1.5,1.2 0,0.1 -0.1,0.3 -0.1,0.4 v 1 z"
   id="path37" />
		<path
   class="st1"
   d="m 179.8,374.5 c 0,2 -1.4,2.8 -2.7,2.8 -1.4,0 -2.6,-1.1 -2.6,-2.7 0,-1.8 1.2,-2.8 2.6,-2.8 1.7,0 2.7,1.1 2.7,2.7 z m -4.2,0.1 c 0,1.2 0.7,2 1.6,2 0.9,0 1.6,-0.9 1.6,-2.1 0,-0.9 -0.5,-2 -1.6,-2 -1.1,0 -1.6,1.1 -1.6,2.1 z"
   id="path38" />
		<path
   class="st1"
   d="m 181,373.6 c 0,-0.6 0,-1.2 0,-1.7 h 0.8 v 1 0 c 0.2,-0.7 0.8,-1.2 1.5,-1.2 0.1,0 0.2,0 0.3,0 v 0.9 c -0.1,0 -0.2,0 -0.3,0 -0.7,0 -1.2,0.5 -1.3,1.2 0,0.1 0,0.3 0,0.5 v 2.8 h -1 z"
   id="path39" />
		<path
   class="st1"
   d="m 188.3,377 c -0.3,0.1 -0.8,0.3 -1.5,0.3 -1.6,0 -2.7,-1.1 -2.7,-2.7 0,-1.6 1.1,-2.8 2.9,-2.8 0.6,0 1.1,0.1 1.3,0.3 l -0.2,0.7 c -0.2,-0.1 -0.6,-0.3 -1.1,-0.3 -1.2,0 -1.9,0.9 -1.9,2 0,1.2 0.8,2 1.8,2 0.6,0 0.9,-0.1 1.2,-0.3 z"
   id="path40" />
		<path
   class="st1"
   d="m 189.9,374.7 c 0,1.3 0.9,1.8 1.8,1.8 0.7,0 1.1,-0.1 1.5,-0.3 l 0.2,0.7 c -0.3,0.2 -0.9,0.3 -1.8,0.3 -1.6,0 -2.6,-1.1 -2.6,-2.7 0,-1.6 0.9,-2.9 2.5,-2.9 1.7,0 2.2,1.5 2.2,2.5 0,0.2 0,0.4 0,0.5 h -3.8 z m 2.8,-0.6 c 0,-0.6 -0.3,-1.6 -1.3,-1.6 -1,0 -1.4,0.9 -1.5,1.6 z"
   id="path41" />
		<path
   class="st1"
   d="m 194.9,373.3 c 0,-0.5 0,-1 0,-1.4 h 0.9 l 0.1,0.9 v 0 c 0.3,-0.5 0.9,-1 1.8,-1 0.7,0 1.9,0.4 1.9,2.3 v 3.2 h -1 v -3.1 c 0,-0.9 -0.3,-1.6 -1.2,-1.6 -0.6,0 -1.1,0.5 -1.3,1 0,0.1 -0.1,0.3 -0.1,0.5 v 3.2 h -1 v -4 z"
   id="path42" />
		<path
   class="st1"
   d="m 202.1,370.4 v 1.5 h 1.4 v 0.7 h -1.4 v 2.9 c 0,0.7 0.2,1 0.7,1 0.3,0 0.4,0 0.6,-0.1 v 0.7 c -0.2,0.1 -0.5,0.1 -0.9,0.1 -0.5,0 -0.8,-0.1 -1,-0.4 -0.3,-0.3 -0.4,-0.8 -0.4,-1.4 v -2.9 h -0.8 v -0.7 h 0.8 v -1.3 z"
   id="path43" />
		<path
   class="st1"
   d="m 207.5,377.2 -0.1,-0.7 v 0 c -0.3,0.4 -0.9,0.8 -1.6,0.8 -1.1,0 -1.6,-0.8 -1.6,-1.5 0,-1.3 1.1,-2 3.2,-2 v -0.1 c 0,-0.4 -0.1,-1.2 -1.2,-1.2 -0.5,0 -1,0.2 -1.4,0.4 l -0.2,-0.6 c 0.4,-0.3 1.1,-0.5 1.7,-0.5 1.6,0 2,1.1 2,2.2 v 2 c 0,0.5 0,0.9 0.1,1.3 h -0.9 z m -0.1,-2.7 c -1.1,0 -2.3,0.2 -2.3,1.2 0,0.6 0.4,0.9 0.9,0.9 0.7,0 1.1,-0.4 1.3,-0.9 0,-0.1 0.1,-0.2 0.1,-0.3 z"
   id="path44" />
		<path
   class="st1"
   d="m 208.6,378.8 c 0.4,0 0.8,-0.2 1.1,-0.4 0.3,-0.3 0.4,-0.7 0.4,-2 v -4.5 h 1 v 4.8 c 0,1 -0.2,1.7 -0.6,2.2 -0.4,0.4 -1.1,0.6 -1.7,0.6 z m 2.5,-8.4 c 0,0.3 -0.2,0.6 -0.6,0.6 -0.4,0 -0.6,-0.3 -0.6,-0.6 0,-0.3 0.3,-0.6 0.6,-0.6 0.3,0 0.6,0.3 0.6,0.6 z"
   id="path45" />
		<path
   class="st1"
   d="m 213.1,374.7 c 0,1.3 0.9,1.8 1.8,1.8 0.7,0 1.1,-0.1 1.5,-0.3 l 0.2,0.7 c -0.3,0.2 -0.9,0.3 -1.8,0.3 -1.6,0 -2.6,-1.1 -2.6,-2.7 0,-1.6 0.9,-2.9 2.5,-2.9 1.7,0 2.2,1.5 2.2,2.5 0,0.2 0,0.4 0,0.5 h -3.8 z m 2.8,-0.6 c 0,-0.6 -0.3,-1.6 -1.3,-1.6 -1,0 -1.4,0.9 -1.5,1.6 z"
   id="path46" />
		<path
   class="st1"
   d="m 217.5,378.6 c 0.8,-1.1 1.4,-2.5 1.4,-4.5 0,-2 -0.6,-3.4 -1.4,-4.5 h 0.7 c 0.7,0.9 1.4,2.3 1.4,4.5 0,2.2 -0.7,3.6 -1.4,4.5 z"
   id="path47" />
	</g>
	
	
	
	
	
	
	
	
	
	
	
	
	
	
	
	
	
	<line
   class="st0"
   x1="55.099998"
   y1="344.79999"
   x2="55.099998"
   y2="245"
   id="line60" />
	<line
   class="st0"
   x1="85"
   y1="344.79999"
   x2="85"
   y2="245"
   id="line61" />
	<line
   class="st0"
   x1="114.6"
   y1="344.79999"
   x2="114.6"
   y2="245"
   id="line62" />
	<line
   class="st0"
   x1="144.3"
   y1="344.79999"
   x2="144.3"
   y2="245"
   id="line63" />
	<line
   class="st0"
   x1="174"
   y1="344.79999"
   x2="174"
   y2="245"
   id="line64" />
	<line
   class="st0"
   x1="203.7"
   y1="344.79999"
   x2="203.7"
   y2="245"
   id="line65" />
	<line
   class="st0"
   x1="233.39999"
   y1="344.79999"
   x2="233.39999"
   y2="245"
   id="line66" />
	<line
   class="st0"
   x1="263"
   y1="344.79999"
   x2="263"
   y2="245"
   id="line67" />
	<line
   class="st0"
   x1="292.79999"
   y1="344.79999"
   x2="292.79999"
   y2="245"
   id="line68" />
	<line
   class="st0"
   x1="322.39999"
   y1="344.79999"
   x2="322.39999"
   y2="245"
   id="line69" />
	<g
   id="g69">
		<path
   class="st1"
   d="m 25.8,355.1 c 0,2.4 -0.9,3.8 -2.5,3.8 -1.4,0 -2.3,-1.3 -2.4,-3.7 0,-2.4 1,-3.7 2.5,-3.7 1.5,0 2.4,1.3 2.4,3.6 z m -3.9,0.1 c 0,1.9 0.6,2.9 1.5,2.9 1,0 1.5,-1.2 1.5,-3 0,-1.8 -0.5,-2.9 -1.5,-2.9 -0.9,0 -1.5,1 -1.5,3 z"
   id="path69" />
	</g>
	<g
   id="g72">
		<path
   class="st1"
   d="m 47.4,352.5 v 0 l -1.3,0.7 -0.2,-0.7 1.6,-0.8 h 0.8 v 7.2 h -0.9 z"
   id="path70" />
		<path
   class="st1"
   d="m 55.7,355.1 c 0,2.4 -0.9,3.8 -2.5,3.8 -1.4,0 -2.3,-1.3 -2.4,-3.7 0,-2.4 1,-3.7 2.5,-3.7 1.5,0 2.4,1.3 2.4,3.6 z m -3.9,0.1 c 0,1.9 0.6,2.9 1.5,2.9 1,0 1.5,-1.2 1.5,-3 0,-1.8 -0.5,-2.9 -1.5,-2.9 -0.9,0 -1.5,1 -1.5,3 z"
   id="path71" />
		<path
   class="st1"
   d="m 59.8,353.6 c 0,1.5 -0.8,2.3 -1.7,2.3 -0.9,0 -1.7,-0.7 -1.7,-2.2 0,-1.4 0.8,-2.2 1.7,-2.2 1,0 1.7,0.7 1.7,2.1 z m -2.6,0.1 c 0,0.9 0.3,1.6 0.9,1.6 0.6,0 0.9,-0.7 0.9,-1.6 0,-0.9 -0.3,-1.6 -0.9,-1.6 -0.6,-0.1 -0.9,0.7 -0.9,1.6 z m 0.8,5.2 4.2,-7.4 h 0.6 l -4.2,7.4 z m 6.4,-2.3 c 0,1.5 -0.8,2.3 -1.7,2.3 -0.9,0 -1.7,-0.7 -1.7,-2.1 0,-1.4 0.8,-2.2 1.7,-2.2 1.1,-0.2 1.7,0.6 1.7,2 z m -2.6,0 c 0,0.9 0.3,1.6 0.9,1.6 0.6,0 0.9,-0.7 0.9,-1.6 0,-0.9 -0.3,-1.6 -0.9,-1.6 -0.6,0 -0.9,0.7 -0.9,1.6 z"
   id="path72" />
	</g>
	<g
   id="g75">
		<path
   class="st1"
   d="m 75.4,358.7 v -0.6 l 0.8,-0.7 c 1.8,-1.7 2.7,-2.7 2.7,-3.7 0,-0.7 -0.4,-1.4 -1.4,-1.4 -0.6,0 -1.2,0.3 -1.5,0.6 l -0.3,-0.7 c 0.5,-0.4 1.2,-0.7 2,-0.7 1.5,0 2.2,1.1 2.2,2.1 0,1.3 -1,2.4 -2.5,3.8 l -0.6,0.5 v 0 H 80 v 0.8 z"
   id="path73" />
		<path
   class="st1"
   d="m 85.8,355.1 c 0,2.4 -0.9,3.8 -2.5,3.8 -1.4,0 -2.3,-1.3 -2.4,-3.7 0,-2.4 1,-3.7 2.5,-3.7 1.5,0 2.4,1.3 2.4,3.6 z m -3.9,0.1 c 0,1.9 0.6,2.9 1.5,2.9 1,0 1.5,-1.2 1.5,-3 0,-1.8 -0.5,-2.9 -1.5,-2.9 -0.9,0 -1.5,1 -1.5,3 z"
   id="path74" />
		<path
   class="st1"
   d="m 89.9,353.6 c 0,1.5 -0.8,2.3 -1.7,2.3 -0.9,0 -1.7,-0.7 -1.7,-2.2 0,-1.4 0.8,-2.2 1.7,-2.2 1,0 1.7,0.7 1.7,2.1 z m -2.6,0.1 c 0,0.9 0.3,1.6 0.9,1.6 0.6,0 0.9,-0.7 0.9,-1.6 0,-0.9 -0.3,-1.6 -0.9,-1.6 -0.6,-0.1 -0.9,0.7 -0.9,1.6 z m 0.8,5.2 4.2,-7.4 h 0.6 l -4.2,7.4 z m 6.4,-2.3 c 0,1.5 -0.8,2.3 -1.7,2.3 -0.9,0 -1.7,-0.7 -1.7,-2.1 0,-1.4 0.8,-2.2 1.7,-2.2 1.1,-0.2 1.7,0.6 1.7,2 z m -2.6,0 c 0,0.9 0.3,1.6 0.9,1.6 0.6,0 0.9,-0.7 0.9,-1.6 0,-0.9 -0.3,-1.6 -0.9,-1.6 -0.5,0 -0.9,0.7 -0.9,1.6 z"
   id="path75" />
	</g>
	<g
   id="g78">
		<path
   class="st1"
   d="m 105.1,357.6 c 0.3,0.2 0.9,0.5 1.6,0.5 1.2,0 1.6,-0.8 1.6,-1.4 0,-1 -0.9,-1.4 -1.8,-1.4 H 106 v -0.7 h 0.5 c 0.7,0 1.6,-0.4 1.6,-1.2 0,-0.6 -0.4,-1.1 -1.3,-1.1 -0.6,0 -1.1,0.3 -1.4,0.5 l -0.3,-0.7 c 0.4,-0.3 1.1,-0.6 1.9,-0.6 1.4,0 2,0.8 2,1.7 0,0.7 -0.4,1.4 -1.3,1.7 v 0 c 0.9,0.2 1.6,0.8 1.6,1.8 0,1.1 -0.9,2.1 -2.6,2.1 -0.8,0 -1.5,-0.3 -1.9,-0.5 z"
   id="path76" />
		<path
   class="st1"
   d="m 115.3,355.1 c 0,2.4 -0.9,3.8 -2.5,3.8 -1.4,0 -2.3,-1.3 -2.4,-3.7 0,-2.4 1,-3.7 2.5,-3.7 1.5,0 2.4,1.3 2.4,3.6 z m -3.9,0.1 c 0,1.9 0.6,2.9 1.5,2.9 1,0 1.5,-1.2 1.5,-3 0,-1.8 -0.5,-2.9 -1.5,-2.9 -0.9,0 -1.5,1 -1.5,3 z"
   id="path77" />
		<path
   class="st1"
   d="m 119.4,353.6 c 0,1.5 -0.8,2.3 -1.7,2.3 -0.9,0 -1.7,-0.7 -1.7,-2.2 0,-1.4 0.8,-2.2 1.7,-2.2 1,0 1.7,0.7 1.7,2.1 z m -2.6,0.1 c 0,0.9 0.3,1.6 0.9,1.6 0.6,0 0.9,-0.7 0.9,-1.6 0,-0.9 -0.3,-1.6 -0.9,-1.6 -0.6,-0.1 -0.9,0.7 -0.9,1.6 z m 0.8,5.2 4.2,-7.4 h 0.6 l -4.2,7.4 z m 6.4,-2.3 c 0,1.5 -0.8,2.3 -1.7,2.3 -0.9,0 -1.7,-0.7 -1.7,-2.1 0,-1.4 0.8,-2.2 1.7,-2.2 1.1,-0.2 1.7,0.6 1.7,2 z m -2.6,0 c 0,0.9 0.3,1.6 0.9,1.6 0.6,0 0.9,-0.7 0.9,-1.6 0,-0.9 -0.3,-1.6 -0.9,-1.6 -0.5,0 -0.9,0.7 -0.9,1.6 z"
   id="path78" />
	</g>
	<g
   id="g81">
		<path
   class="st1"
   d="m 137.4,358.7 v -1.9 h -3.3 v -0.6 l 3.2,-4.6 h 1 v 4.4 h 1 v 0.8 h -1 v 1.9 z m 0,-2.7 v -2.4 c 0,-0.4 0,-0.7 0,-1.1 v 0 c -0.2,0.4 -0.4,0.7 -0.6,1.1 L 135,356 v 0 z"
   id="path79" />
		<path
   class="st1"
   d="m 144.8,355.1 c 0,2.4 -0.9,3.8 -2.5,3.8 -1.4,0 -2.3,-1.3 -2.4,-3.7 0,-2.4 1,-3.7 2.5,-3.7 1.5,0 2.4,1.3 2.4,3.6 z m -3.9,0.1 c 0,1.9 0.6,2.9 1.5,2.9 1,0 1.5,-1.2 1.5,-3 0,-1.8 -0.5,-2.9 -1.5,-2.9 -0.9,0 -1.5,1 -1.5,3 z"
   id="path80" />
		<path
   class="st1"
   d="m 148.9,353.6 c 0,1.5 -0.8,2.3 -1.7,2.3 -0.9,0 -1.7,-0.7 -1.7,-2.2 0,-1.4 0.8,-2.2 1.7,-2.2 1,0 1.7,0.7 1.7,2.1 z m -2.6,0.1 c 0,0.9 0.3,1.6 0.9,1.6 0.6,0 0.9,-0.7 0.9,-1.6 0,-0.9 -0.3,-1.6 -0.9,-1.6 -0.6,-0.1 -0.9,0.7 -0.9,1.6 z m 0.8,5.2 4.2,-7.4 h 0.6 l -4.2,7.4 z m 6.4,-2.3 c 0,1.5 -0.8,2.3 -1.7,2.3 -0.9,0 -1.7,-0.7 -1.7,-2.1 0,-1.4 0.8,-2.2 1.7,-2.2 1.1,-0.2 1.7,0.6 1.7,2 z m -2.6,0 c 0,0.9 0.3,1.6 0.9,1.6 0.6,0 0.9,-0.7 0.9,-1.6 0,-0.9 -0.3,-1.6 -0.9,-1.6 -0.5,0 -0.9,0.7 -0.9,1.6 z"
   id="path81" />
	</g>
	<g
   id="g84">
		<path
   class="st1"
   d="m 168.4,352.4 h -2.7 l -0.3,1.8 c 0.2,0 0.3,0 0.6,0 0.6,0 1.1,0.1 1.5,0.4 0.6,0.3 1,0.9 1,1.8 0,1.4 -1.1,2.4 -2.7,2.4 -0.8,0 -1.4,-0.2 -1.8,-0.4 l 0.2,-0.7 c 0.3,0.2 0.9,0.4 1.5,0.4 0.9,0 1.7,-0.6 1.7,-1.6 0,-0.9 -0.6,-1.6 -2.1,-1.6 -0.4,0 -0.7,0 -1,0.1 l 0.5,-3.4 h 3.4 v 0.8 z"
   id="path82" />
		<path
   class="st1"
   d="m 174.5,355.1 c 0,2.4 -0.9,3.8 -2.5,3.8 -1.4,0 -2.3,-1.3 -2.4,-3.7 0,-2.4 1,-3.7 2.5,-3.7 1.6,0 2.4,1.3 2.4,3.6 z m -3.9,0.1 c 0,1.9 0.6,2.9 1.5,2.9 1,0 1.5,-1.2 1.5,-3 0,-1.8 -0.5,-2.9 -1.5,-2.9 -0.8,0 -1.5,1 -1.5,3 z"
   id="path83" />
		<path
   class="st1"
   d="m 178.6,353.6 c 0,1.5 -0.8,2.3 -1.7,2.3 -0.9,0 -1.7,-0.7 -1.7,-2.2 0,-1.4 0.8,-2.2 1.7,-2.2 1.1,0 1.7,0.7 1.7,2.1 z m -2.6,0.1 c 0,0.9 0.3,1.6 0.9,1.6 0.6,0 0.9,-0.7 0.9,-1.6 0,-0.9 -0.3,-1.6 -0.9,-1.6 -0.6,-0.1 -0.9,0.7 -0.9,1.6 z m 0.9,5.2 4.2,-7.4 h 0.6 l -4.2,7.4 z m 6.4,-2.3 c 0,1.5 -0.8,2.3 -1.7,2.3 -0.9,0 -1.7,-0.7 -1.7,-2.1 0,-1.4 0.8,-2.2 1.7,-2.2 1,-0.2 1.7,0.6 1.7,2 z m -2.6,0 c 0,0.9 0.3,1.6 0.9,1.6 0.6,0 0.9,-0.7 0.9,-1.6 0,-0.9 -0.3,-1.6 -0.9,-1.6 -0.6,0 -0.9,0.7 -0.9,1.6 z"
   id="path84" />
	</g>
	<g
   id="g87">
		<path
   class="st1"
   d="m 198.7,352.3 c -0.2,0 -0.5,0 -0.7,0 -1.5,0.3 -2.3,1.4 -2.5,2.5 v 0 c 0.3,-0.5 0.9,-0.8 1.7,-0.8 1.3,0 2.2,0.9 2.2,2.3 0,1.3 -0.9,2.5 -2.4,2.5 -1.5,0 -2.5,-1.2 -2.5,-3 0,-1.4 0.5,-2.5 1.2,-3.2 0.6,-0.6 1.4,-0.9 2.3,-1.1 0.3,0 0.5,-0.1 0.7,-0.1 z m -0.3,4.1 c 0,-1 -0.6,-1.6 -1.5,-1.6 -0.6,0 -1.1,0.4 -1.4,0.9 -0.1,0.1 -0.1,0.3 -0.1,0.4 0,1.2 0.6,2 1.6,2 0.9,0 1.4,-0.7 1.4,-1.7 z"
   id="path85" />
		<path
   class="st1"
   d="m 205,355.1 c 0,2.4 -0.9,3.8 -2.5,3.8 -1.4,0 -2.3,-1.3 -2.4,-3.7 0,-2.4 1,-3.7 2.5,-3.7 1.6,0 2.4,1.3 2.4,3.6 z m -3.9,0.1 c 0,1.9 0.6,2.9 1.5,2.9 1,0 1.5,-1.2 1.5,-3 0,-1.8 -0.5,-2.9 -1.5,-2.9 -0.8,0 -1.5,1 -1.5,3 z"
   id="path86" />
		<path
   class="st1"
   d="m 209.1,353.6 c 0,1.5 -0.8,2.3 -1.7,2.3 -0.9,0 -1.7,-0.7 -1.7,-2.2 0,-1.4 0.8,-2.2 1.7,-2.2 1.1,0 1.7,0.7 1.7,2.1 z m -2.6,0.1 c 0,0.9 0.3,1.6 0.9,1.6 0.6,0 0.9,-0.7 0.9,-1.6 0,-0.9 -0.3,-1.6 -0.9,-1.6 -0.6,-0.1 -0.9,0.7 -0.9,1.6 z m 0.9,5.2 4.2,-7.4 h 0.6 l -4.2,7.4 z m 6.4,-2.3 c 0,1.5 -0.8,2.3 -1.7,2.3 -0.9,0 -1.7,-0.7 -1.7,-2.1 0,-1.4 0.8,-2.2 1.7,-2.2 1,-0.2 1.7,0.6 1.7,2 z m -2.6,0 c 0,0.9 0.3,1.6 0.9,1.6 0.6,0 0.9,-0.7 0.9,-1.6 0,-0.9 -0.3,-1.6 -0.9,-1.6 -0.6,0 -0.9,0.7 -0.9,1.6 z"
   id="path87" />
	</g>
	<g
   id="g90">
		<path
   class="st1"
   d="m 228.8,351.6 v 0.6 l -3.1,6.5 h -1 l 3.1,-6.3 v 0 h -3.5 v -0.8 z"
   id="path88" />
		<path
   class="st1"
   d="m 234.5,355.1 c 0,2.4 -0.9,3.8 -2.5,3.8 -1.4,0 -2.3,-1.3 -2.4,-3.7 0,-2.4 1,-3.7 2.5,-3.7 1.6,0 2.4,1.3 2.4,3.6 z m -3.9,0.1 c 0,1.9 0.6,2.9 1.5,2.9 1,0 1.5,-1.2 1.5,-3 0,-1.8 -0.5,-2.9 -1.5,-2.9 -0.8,0 -1.5,1 -1.5,3 z"
   id="path89" />
		<path
   class="st1"
   d="m 238.6,353.6 c 0,1.5 -0.8,2.3 -1.7,2.3 -0.9,0 -1.7,-0.7 -1.7,-2.2 0,-1.4 0.8,-2.2 1.7,-2.2 1.1,0 1.7,0.7 1.7,2.1 z m -2.6,0.1 c 0,0.9 0.3,1.6 0.9,1.6 0.6,0 0.9,-0.7 0.9,-1.6 0,-0.9 -0.3,-1.6 -0.9,-1.6 -0.6,-0.1 -0.9,0.7 -0.9,1.6 z m 0.9,5.2 4.2,-7.4 h 0.6 l -4.2,7.4 z m 6.4,-2.3 c 0,1.5 -0.8,2.3 -1.7,2.3 -0.9,0 -1.7,-0.7 -1.7,-2.1 0,-1.4 0.8,-2.2 1.7,-2.2 1,-0.2 1.7,0.6 1.7,2 z m -2.6,0 c 0,0.9 0.3,1.6 0.9,1.6 0.6,0 0.9,-0.7 0.9,-1.6 0,-0.9 -0.3,-1.6 -0.9,-1.6 -0.6,0 -0.9,0.7 -0.9,1.6 z"
   id="path90" />
	</g>
	<g
   id="g93">
		<path
   class="st1"
   d="m 253,356.9 c 0,-0.9 0.5,-1.5 1.4,-1.9 v 0 c -0.8,-0.4 -1.1,-1 -1.1,-1.6 0,-1.1 1,-1.9 2.2,-1.9 1.4,0 2.1,0.9 2.1,1.8 0,0.6 -0.3,1.3 -1.2,1.7 v 0 c 0.9,0.4 1.4,1 1.4,1.8 0,1.2 -1.1,2.1 -2.4,2.1 -1.5,0 -2.4,-0.9 -2.4,-2 z m 3.9,0 c 0,-0.9 -0.6,-1.3 -1.6,-1.6 -0.8,0.2 -1.3,0.8 -1.3,1.5 0,0.7 0.5,1.4 1.4,1.4 0.9,-0.1 1.5,-0.6 1.5,-1.3 z m -2.7,-3.6 c 0,0.7 0.5,1.1 1.4,1.3 0.6,-0.2 1.1,-0.6 1.1,-1.3 0,-0.6 -0.3,-1.2 -1.2,-1.2 -0.8,0.1 -1.3,0.6 -1.3,1.2 z"
   id="path91" />
		<path
   class="st1"
   d="m 263.5,355.1 c 0,2.4 -0.9,3.8 -2.5,3.8 -1.4,0 -2.3,-1.3 -2.4,-3.7 0,-2.4 1,-3.7 2.5,-3.7 1.6,0 2.4,1.3 2.4,3.6 z m -3.9,0.1 c 0,1.9 0.6,2.9 1.5,2.9 1,0 1.5,-1.2 1.5,-3 0,-1.8 -0.5,-2.9 -1.5,-2.9 -0.8,0 -1.5,1 -1.5,3 z"
   id="path92" />
		<path
   class="st1"
   d="m 267.6,353.6 c 0,1.5 -0.8,2.3 -1.7,2.3 -0.9,0 -1.7,-0.7 -1.7,-2.2 0,-1.4 0.8,-2.2 1.7,-2.2 1.1,0 1.7,0.7 1.7,2.1 z m -2.6,0.1 c 0,0.9 0.3,1.6 0.9,1.6 0.6,0 0.9,-0.7 0.9,-1.6 0,-0.9 -0.3,-1.6 -0.9,-1.6 -0.6,-0.1 -0.9,0.7 -0.9,1.6 z m 0.9,5.2 4.2,-7.4 h 0.6 l -4.2,7.4 z m 6.4,-2.3 c 0,1.5 -0.8,2.3 -1.7,2.3 -0.9,0 -1.7,-0.7 -1.7,-2.1 0,-1.4 0.8,-2.2 1.7,-2.2 1,-0.2 1.7,0.6 1.7,2 z m -2.6,0 c 0,0.9 0.3,1.6 0.9,1.6 0.6,0 0.9,-0.7 0.9,-1.6 0,-0.9 -0.3,-1.6 -0.9,-1.6 -0.6,0 -0.9,0.7 -0.9,1.6 z"
   id="path93" />
	</g>
	<g
   id="g96">
		<path
   class="st1"
   d="m 284.2,358.1 c 0.2,0 0.5,0 0.8,0 0.6,-0.1 1.1,-0.3 1.5,-0.7 0.5,-0.4 0.8,-1.1 0.9,-1.9 v 0 c -0.4,0.5 -1,0.8 -1.7,0.8 -1.3,0 -2.1,-1 -2.1,-2.2 0,-1.4 1,-2.5 2.4,-2.5 1.4,0 2.4,1.2 2.4,3 0,1.6 -0.5,2.7 -1.2,3.4 -0.5,0.5 -1.3,0.9 -2.1,1 -0.4,0.1 -0.7,0.1 -0.9,0.1 z m 0.3,-4.2 c 0,0.9 0.5,1.5 1.4,1.5 0.6,0 1.2,-0.3 1.4,-0.7 0.1,-0.1 0.1,-0.2 0.1,-0.4 0,-1.2 -0.5,-2.2 -1.5,-2.2 -0.8,0.1 -1.4,0.8 -1.4,1.8 z"
   id="path94" />
		<path
   class="st1"
   d="m 294,355.1 c 0,2.4 -0.9,3.8 -2.5,3.8 -1.4,0 -2.3,-1.3 -2.4,-3.7 0,-2.4 1,-3.7 2.5,-3.7 1.6,0 2.4,1.3 2.4,3.6 z m -3.9,0.1 c 0,1.9 0.6,2.9 1.5,2.9 1,0 1.5,-1.2 1.5,-3 0,-1.8 -0.5,-2.9 -1.5,-2.9 -0.8,0 -1.5,1 -1.5,3 z"
   id="path95" />
		<path
   class="st1"
   d="m 298.1,353.6 c 0,1.5 -0.8,2.3 -1.7,2.3 -0.9,0 -1.7,-0.7 -1.7,-2.2 0,-1.4 0.8,-2.2 1.7,-2.2 1.1,0 1.7,0.7 1.7,2.1 z m -2.6,0.1 c 0,0.9 0.3,1.6 0.9,1.6 0.6,0 0.9,-0.7 0.9,-1.6 0,-0.9 -0.3,-1.6 -0.9,-1.6 -0.6,-0.1 -0.9,0.7 -0.9,1.6 z m 0.9,5.2 4.2,-7.4 h 0.6 l -4.2,7.4 z m 6.4,-2.3 c 0,1.5 -0.8,2.3 -1.7,2.3 -0.9,0 -1.7,-0.7 -1.7,-2.1 0,-1.4 0.8,-2.2 1.7,-2.2 1,-0.2 1.7,0.6 1.7,2 z m -2.6,0 c 0,0.9 0.3,1.6 0.9,1.6 0.6,0 0.9,-0.7 0.9,-1.6 0,-0.9 -0.3,-1.6 -0.9,-1.6 -0.6,0 -0.9,0.7 -0.9,1.6 z"
   id="path96" />
	</g>
	<g
   id="g100">
		<path
   class="st1"
   d="m 312.6,352.5 v 0 l -1.3,0.7 -0.2,-0.7 1.6,-0.8 h 0.8 v 7.2 h -0.9 z"
   id="path97" />
		<path
   class="st1"
   d="m 320.9,355.1 c 0,2.4 -0.9,3.8 -2.5,3.8 -1.4,0 -2.3,-1.3 -2.4,-3.7 0,-2.4 1,-3.7 2.5,-3.7 1.5,0 2.4,1.3 2.4,3.6 z m -3.9,0.1 c 0,1.9 0.6,2.9 1.5,2.9 1,0 1.5,-1.2 1.5,-3 0,-1.8 -0.5,-2.9 -1.5,-2.9 -0.9,0 -1.5,1 -1.5,3 z"
   id="path98" />
		<path
   class="st1"
   d="m 326.5,355.1 c 0,2.4 -0.9,3.8 -2.5,3.8 -1.4,0 -2.3,-1.3 -2.4,-3.7 0,-2.4 1,-3.7 2.5,-3.7 1.6,0 2.4,1.3 2.4,3.6 z m -3.9,0.1 c 0,1.9 0.6,2.9 1.5,2.9 1,0 1.5,-1.2 1.5,-3 0,-1.8 -0.5,-2.9 -1.5,-2.9 -0.9,0 -1.5,1 -1.5,3 z"
   id="path99" />
		<path
   class="st1"
   d="m 330.6,353.6 c 0,1.5 -0.8,2.3 -1.7,2.3 -0.9,0 -1.7,-0.7 -1.7,-2.2 0,-1.4 0.8,-2.2 1.7,-2.2 1.1,0 1.7,0.7 1.7,2.1 z m -2.6,0.1 c 0,0.9 0.3,1.6 0.9,1.6 0.6,0 0.9,-0.7 0.9,-1.6 0,-0.9 -0.3,-1.6 -0.9,-1.6 -0.6,-0.1 -0.9,0.7 -0.9,1.6 z m 0.8,5.2 4.2,-7.4 h 0.6 l -4.2,7.4 z m 6.5,-2.3 c 0,1.5 -0.8,2.3 -1.7,2.3 -0.9,0 -1.7,-0.7 -1.7,-2.1 0,-1.4 0.8,-2.2 1.7,-2.2 1,-0.2 1.7,0.6 1.7,2 z m -2.6,0 c 0,0.9 0.3,1.6 0.9,1.6 0.6,0 0.9,-0.7 0.9,-1.6 0,-0.9 -0.3,-1.6 -0.9,-1.6 -0.6,0 -0.9,0.7 -0.9,1.6 z"
   id="path100" />
	</g>
	<line
   class="st2"
   x1="25"
   y1="345.5"
   x2="323"
   y2="345.5"
   id="line100" />
	<line
   class="st2"
   x1="55.200001"
   y1="345.79999"
   x2="55.200001"
   y2="341.70001"
   id="line101" />
	<line
   class="st2"
   x1="84.900002"
   y1="345.79999"
   x2="84.900002"
   y2="341.70001"
   id="line102" />
	<line
   class="st2"
   x1="114.6"
   y1="345.79999"
   x2="114.6"
   y2="341.70001"
   id="line103" />
	<line
   class="st2"
   x1="144.3"
   y1="345.79999"
   x2="144.3"
   y2="341.70001"
   id="line104" />
	<line
   class="st2"
   x1="174"
   y1="345.79999"
   x2="174"
   y2="341.70001"
   id="line105" />
	<line
   class="st2"
   x1="203.7"
   y1="345.79999"
   x2="203.7"
   y2="341.70001"
   id="line106" />
	<line
   class="st2"
   x1="233.39999"
   y1="345.79999"
   x2="233.39999"
   y2="341.70001"
   id="line107" />
	<line
   class="st2"
   x1="263"
   y1="345.79999"
   x2="263"
   y2="341.70001"
   id="line108" />
	<line
   class="st2"
   x1="292.70001"
   y1="345.79999"
   x2="292.70001"
   y2="341.70001"
   id="line109" />
	<line
   class="st2"
   x1="322.39999"
   y1="345.60001"
   x2="322.39999"
   y2="341.70001"
   id="line110" />
	<line
   class="st2"
   x1="25.5"
   y1="345"
   x2="25.5"
   y2="245.3"
   id="line111" />
	<line
   class="st2"
   x1="22.9"
   y1="244.8"
   x2="28"
   y2="244.8"
   id="line112" />
	<polyline
   class="st3"
   points="322.8,295.9 223.8,295.9 223.8,333.2 322.8,333.2 322.8,295.9  "
   id="polyline112" />
	<path
   class="st4"
   d="m 174.4,333.2 v 0 0 m 49.4,-37.3 h -49.4 v 37.3 h 49.4 v -37.3"
   id="path112" />
	<path
   class="st5"
   d="m 75.7,333.2 h -0.1 0.1 m 98.7,-37.3 H 75.7 v 37.3 h 98.7 v -37.3"
   id="path113" />
	<polyline
   class="st6"
   points="75.8,295.9 26,295.9 26,333.2 75.8,333.2 75.8,295.9  "
   id="polyline113" />
</g>
<g
   id="Layer_1"
   transform="translate(-11.45886,-9.76704)">
	
	<g
   id="g123"
   transform="translate(-9.44114,-203.23296)">
		<path
   class="st7"
   d="m 26.5,226 v -8.2 h -3.2 v -1.9 c 0.4,0 0.9,0 1.3,-0.1 0.4,-0.1 0.8,-0.2 1.1,-0.4 0.3,-0.2 0.6,-0.5 0.8,-0.8 0.2,-0.3 0.4,-0.7 0.5,-1.2 h 2 V 226 Z"
   id="path120" />
		<path
   class="st7"
   d="m 32.8,216.6 c 0.2,-0.8 0.6,-1.5 1,-2 0.4,-0.5 0.9,-0.9 1.5,-1.1 0.6,-0.2 1.1,-0.3 1.8,-0.3 0.6,0 1.2,0.1 1.8,0.3 0.6,0.2 1.1,0.6 1.5,1.1 0.4,0.5 0.8,1.2 1,2 0.2,0.8 0.4,1.9 0.4,3.1 0,1.3 -0.1,2.3 -0.4,3.2 -0.2,0.8 -0.6,1.5 -1,2 -0.4,0.5 -0.9,0.9 -1.5,1.1 -0.6,0.2 -1.2,0.3 -1.8,0.3 -0.6,0 -1.2,-0.1 -1.8,-0.3 -0.6,-0.2 -1,-0.6 -1.5,-1.1 -0.4,-0.5 -0.8,-1.2 -1,-2 -0.2,-0.8 -0.4,-1.9 -0.4,-3.2 0,-1.3 0.1,-2.3 0.4,-3.1 z m 2.2,4.3 c 0,0.5 0.1,1 0.2,1.5 0.1,0.5 0.3,0.9 0.6,1.2 0.3,0.3 0.7,0.5 1.2,0.5 0.5,0 0.9,-0.2 1.2,-0.5 0.3,-0.3 0.5,-0.7 0.6,-1.2 0.1,-0.5 0.2,-1 0.2,-1.5 0,-0.5 0,-0.9 0,-1.3 0,-0.2 0,-0.5 0,-0.8 0,-0.3 0,-0.6 -0.1,-0.9 0,-0.3 -0.1,-0.6 -0.2,-1 -0.1,-0.4 -0.2,-0.6 -0.4,-0.9 -0.2,-0.3 -0.4,-0.5 -0.6,-0.6 -0.2,-0.2 -0.5,-0.2 -0.9,-0.2 -0.4,0 -0.6,0.1 -0.9,0.2 -0.2,0.2 -0.4,0.4 -0.6,0.6 -0.2,0.3 -0.3,0.5 -0.4,0.9 -0.1,0.4 -0.1,0.6 -0.2,1 0,0.3 -0.1,0.6 -0.1,0.9 0,0.3 0,0.6 0,0.8 0.3,0.4 0.4,0.8 0.4,1.3 z"
   id="path121" />
		<path
   class="st7"
   d="m 42.8,216.6 c 0.2,-0.8 0.6,-1.5 1,-2 0.4,-0.5 0.9,-0.9 1.5,-1.1 0.6,-0.2 1.1,-0.3 1.8,-0.3 0.6,0 1.2,0.1 1.8,0.3 0.6,0.2 1.1,0.6 1.5,1.1 0.4,0.5 0.8,1.2 1,2 0.2,0.8 0.4,1.9 0.4,3.1 0,1.3 -0.1,2.3 -0.4,3.2 -0.2,0.8 -0.6,1.5 -1,2 -0.4,0.5 -0.9,0.9 -1.5,1.1 -0.6,0.2 -1.2,0.3 -1.8,0.3 -0.6,0 -1.2,-0.1 -1.8,-0.3 -0.6,-0.2 -1,-0.6 -1.5,-1.1 -0.4,-0.5 -0.8,-1.2 -1,-2 -0.2,-0.8 -0.4,-1.9 -0.4,-3.2 0,-1.3 0.1,-2.3 0.4,-3.1 z m 2.2,4.3 c 0,0.5 0.1,1 0.2,1.5 0.1,0.5 0.3,0.9 0.6,1.2 0.3,0.3 0.7,0.5 1.2,0.5 0.5,0 0.9,-0.2 1.2,-0.5 0.3,-0.3 0.5,-0.7 0.6,-1.2 0.1,-0.5 0.2,-1 0.2,-1.5 0,-0.5 0,-0.9 0,-1.3 0,-0.2 0,-0.5 0,-0.8 0,-0.3 0,-0.6 -0.1,-0.9 0,-0.3 -0.1,-0.6 -0.2,-1 -0.1,-0.4 -0.2,-0.6 -0.4,-0.9 -0.2,-0.3 -0.4,-0.5 -0.6,-0.6 -0.2,-0.2 -0.5,-0.2 -0.9,-0.2 -0.4,0 -0.6,0.1 -0.9,0.2 -0.2,0.2 -0.4,0.4 -0.6,0.6 -0.2,0.3 -0.3,0.5 -0.4,0.9 -0.1,0.4 -0.1,0.6 -0.2,1 0,0.3 -0.1,0.6 -0.1,0.9 0,0.3 0,0.6 0,0.8 0.4,0.4 0.4,0.8 0.4,1.3 z"
   id="path122" />
		<path
   class="st7"
   d="m 53.6,215.3 c 0.1,-0.4 0.3,-0.8 0.6,-1.1 0.3,-0.3 0.6,-0.6 1,-0.8 0.4,-0.2 0.8,-0.3 1.4,-0.3 0.6,0 1,0.1 1.4,0.3 0.4,0.2 0.7,0.5 0.9,0.8 0.2,0.3 0.4,0.7 0.5,1.2 0.1,0.4 0.1,0.9 0.1,1.4 0,0.5 -0.1,0.9 -0.2,1.4 -0.1,0.4 -0.3,0.8 -0.5,1.1 -0.2,0.3 -0.6,0.5 -0.9,0.7 -0.4,0.2 -0.8,0.3 -1.4,0.3 -0.6,0 -1,-0.1 -1.4,-0.3 -0.4,-0.2 -0.7,-0.4 -0.9,-0.7 -0.2,-0.3 -0.4,-0.7 -0.5,-1.1 -0.1,-0.4 -0.2,-0.9 -0.2,-1.4 -0.1,-0.6 -0.1,-1 0.1,-1.5 z m 1.6,2.1 c 0,0.2 0.1,0.5 0.1,0.7 0.1,0.2 0.2,0.4 0.3,0.5 0.1,0.1 0.4,0.2 0.7,0.2 0.3,0 0.5,-0.1 0.7,-0.2 0.2,-0.1 0.3,-0.3 0.4,-0.5 0.1,-0.2 0.1,-0.4 0.1,-0.7 0,-0.2 0,-0.4 0,-0.6 0,-0.2 0,-0.4 0,-0.7 0,-0.3 -0.1,-0.5 -0.1,-0.7 -0.1,-0.2 -0.2,-0.4 -0.3,-0.6 -0.1,-0.2 -0.4,-0.3 -0.6,-0.3 -0.3,0 -0.5,0.1 -0.7,0.2 -0.2,0.2 -0.3,0.3 -0.4,0.6 -0.1,0.2 -0.1,0.5 -0.2,0.7 0,0.3 0,0.5 0,0.7 0,0.2 0,0.5 0,0.7 z M 65.6,213 58.2,226.4 H 56.6 L 64,213 Z m -2.8,8.3 c 0.1,-0.4 0.3,-0.8 0.6,-1.1 0.3,-0.3 0.6,-0.6 1,-0.7 0.4,-0.2 0.8,-0.3 1.4,-0.3 0.6,0 1,0.1 1.4,0.3 0.4,0.2 0.7,0.4 0.9,0.8 0.2,0.3 0.4,0.7 0.5,1.1 0.1,0.4 0.1,0.9 0.1,1.4 0,0.5 -0.1,0.9 -0.2,1.4 -0.1,0.4 -0.3,0.8 -0.5,1.1 -0.2,0.3 -0.6,0.6 -0.9,0.7 -0.4,0.2 -0.8,0.3 -1.4,0.3 -0.6,0 -1,-0.1 -1.4,-0.3 -0.4,-0.2 -0.7,-0.4 -0.9,-0.7 -0.2,-0.3 -0.4,-0.7 -0.5,-1.1 -0.1,-0.4 -0.2,-0.9 -0.2,-1.4 0,-0.5 0,-1 0.1,-1.5 z m 1.7,2.1 c 0,0.3 0.1,0.5 0.1,0.7 0.1,0.2 0.2,0.4 0.3,0.6 0.2,0.2 0.4,0.2 0.7,0.2 0.3,0 0.5,-0.1 0.7,-0.2 0.2,-0.2 0.3,-0.3 0.4,-0.6 0.1,-0.2 0.1,-0.5 0.1,-0.7 0,-0.2 0,-0.5 0,-0.7 0,-0.2 0,-0.4 0,-0.6 0,-0.2 -0.1,-0.5 -0.1,-0.7 -0.1,-0.2 -0.2,-0.4 -0.3,-0.6 -0.1,-0.2 -0.4,-0.2 -0.6,-0.2 -0.3,0 -0.5,0.1 -0.7,0.2 -0.2,0.1 -0.3,0.3 -0.4,0.5 -0.1,0.2 -0.1,0.5 -0.2,0.7 -0.1,0.2 0,0.5 0,0.7 0,0.2 0,0.4 0,0.7 z"
   id="path123" />
	</g>
	
	
	
	
	
	
	
	
	
	
	
	
	
	
	
	
	
	<g
   id="g150"
   transform="translate(-9.44114,-203.23296)">
		<path
   class="st8"
   d="m 131.1,248 h -2.7 v -1.4 h 7.1 v 1.4 h -2.7 v 8 h -1.7 z"
   id="path141" />
		<path
   class="st8"
   d="m 145,251.2 c 0,3.2 -1.9,5 -4.5,5 -2.7,0 -4.3,-2 -4.3,-4.8 0,-2.9 1.8,-4.9 4.5,-4.9 2.7,-0.1 4.3,2 4.3,4.7 z m -7,0.1 c 0,1.9 1,3.4 2.6,3.4 1.7,0 2.6,-1.5 2.6,-3.5 0,-1.8 -0.9,-3.5 -2.6,-3.5 -1.7,0.1 -2.6,1.7 -2.6,3.6 z"
   id="path142" />
		<path
   class="st8"
   d="m 148.3,248 h -2.7 v -1.4 h 7.1 V 248 H 150 v 8 h -1.7 z"
   id="path143" />
		<path
   class="st8"
   d="m 155,253.3 -0.8,2.7 h -1.8 l 3,-9.4 h 2.2 l 3.1,9.4 h -1.8 l -0.9,-2.7 z m 2.7,-1.3 -0.7,-2.3 c -0.2,-0.6 -0.3,-1.2 -0.5,-1.8 v 0 c -0.1,0.5 -0.3,1.2 -0.4,1.8 l -0.7,2.3 z"
   id="path144" />
		<path
   class="st8"
   d="m 162.4,246.6 h 1.7 v 8 h 3.9 v 1.4 h -5.6 z"
   id="path145" />
		<path
   class="st8"
   d="m 172.5,251.4 v -1.1 h 7.2 v 1.1 z m 0,2.8 v -1.1 h 7.2 v 1.1 z"
   id="path146" />
		<path
   class="st8"
   d="m 190.4,248.5 v 0 l -1.7,0.8 -0.3,-1.3 2.2,-1.1 h 1.4 v 9.1 h -1.7 v -7.5 z"
   id="path147" />
		<path
   class="st8"
   d="m 202,251.4 c 0,2.9 -1.1,4.8 -3.3,4.8 -2.1,0 -3.2,-1.9 -3.2,-4.7 0,-2.8 1.2,-4.7 3.3,-4.7 2.2,-0.1 3.2,1.9 3.2,4.6 z m -4.8,0.1 c 0,2.2 0.6,3.4 1.6,3.4 1,0 1.5,-1.2 1.5,-3.4 0,-2.1 -0.5,-3.4 -1.5,-3.4 -1,0 -1.7,1.1 -1.6,3.4 z"
   id="path148" />
		<path
   class="st8"
   d="m 209.8,251.4 c 0,2.9 -1.1,4.8 -3.3,4.8 -2.1,0 -3.2,-1.9 -3.2,-4.7 0,-2.8 1.2,-4.7 3.3,-4.7 2.2,-0.1 3.2,1.9 3.2,4.6 z m -4.8,0.1 c 0,2.2 0.6,3.4 1.6,3.4 1,0 1.5,-1.2 1.5,-3.4 0,-2.1 -0.5,-3.4 -1.5,-3.4 -1,0 -1.6,1.1 -1.6,3.4 z"
   id="path149" />
		<path
   class="st8"
   d="m 215.7,249.4 c 0,1.9 -1.1,2.9 -2.4,2.9 -1.3,0 -2.3,-1 -2.3,-2.7 0,-1.7 1,-2.9 2.4,-2.9 1.5,0 2.3,1.1 2.3,2.7 z m -3.3,0.1 c 0,1.1 0.4,1.8 1.1,1.8 0.7,0 1,-0.7 1,-1.8 0,-1 -0.3,-1.8 -1,-1.8 -0.8,0 -1.1,0.8 -1.1,1.8 z m 1,6.7 5.3,-9.4 h 1 l -5.3,9.4 z m 8.6,-3 c 0,1.9 -1.1,2.9 -2.4,2.9 -1.3,0 -2.3,-1 -2.3,-2.7 0,-1.7 1,-2.9 2.4,-2.9 1.5,0 2.3,1.1 2.3,2.7 z m -3.4,0.1 c 0,1 0.4,1.8 1.1,1.8 0.7,0 1,-0.7 1,-1.8 0,-1 -0.3,-1.8 -1,-1.8 -0.7,0 -1.1,0.8 -1.1,1.8 z"
   id="path150" />
	</g>
	<polyline
   class="st9"
   points="31.3,267.4 27.8,263.9 31.3,260.4  "
   id="polyline150"
   transform="translate(-9.44114,-203.23296)" />
	<polyline
   class="st9"
   points="318.4,260.4 321.9,263.9 318.4,267.4  "
   id="polyline151"
   transform="translate(-9.44114,-203.23296)" />
	<line
   class="st10"
   x1="18.35886"
   y1="60.667034"
   x2="311.75888"
   y2="60.667034"
   id="line151" />
	
	
	
	<g
   id="g157"
   transform="translate(-9.44114,-203.23296)">
		<path
   class="st8"
   d="m 109,283.2 c 0.4,0.2 1.2,0.6 2.1,0.6 1.3,0 1.8,-0.7 1.8,-1.5 0,-1.1 -1,-1.5 -2.1,-1.5 H 110 v -1.3 h 0.8 c 0.8,0 1.8,-0.4 1.8,-1.3 0,-0.6 -0.5,-1.1 -1.5,-1.1 -0.7,0 -1.5,0.3 -1.9,0.6 l -0.4,-1.2 c 0.5,-0.4 1.5,-0.7 2.6,-0.7 1.9,0 2.8,1 2.8,2.2 0,1 -0.6,1.7 -1.7,2.1 v 0 c 1.1,0.2 2,1 2,2.3 0,1.5 -1.3,2.8 -3.5,2.8 -1.1,0 -2.1,-0.3 -2.5,-0.6 z"
   id="path153" />
		<path
   class="st8"
   d="m 116.8,283.2 c 0.4,0.2 1.2,0.6 2.1,0.6 1.3,0 1.8,-0.7 1.8,-1.5 0,-1.1 -1,-1.5 -2.1,-1.5 h -0.8 v -1.3 h 0.8 c 0.8,0 1.8,-0.4 1.8,-1.3 0,-0.6 -0.5,-1.1 -1.5,-1.1 -0.7,0 -1.5,0.3 -1.9,0.6 l -0.4,-1.2 c 0.5,-0.4 1.5,-0.7 2.6,-0.7 1.9,0 2.8,1 2.8,2.2 0,1 -0.6,1.7 -1.7,2.1 v 0 c 1.1,0.2 2,1 2,2.3 0,1.5 -1.3,2.8 -3.5,2.8 -1.1,0 -2.1,-0.3 -2.5,-0.6 z"
   id="path154" />
		<path
   class="st8"
   d="m 124.4,284.1 c 0,-0.6 0.4,-1.1 1.1,-1.1 0.6,0 1.1,0.4 1.1,1.1 0,0.6 -0.4,1.1 -1.1,1.1 -0.6,0 -1.1,-0.5 -1.1,-1.1 z"
   id="path155" />
		<path
   class="st8"
   d="m 128.3,283.2 c 0.4,0.2 1.2,0.6 2.1,0.6 1.3,0 1.8,-0.7 1.8,-1.5 0,-1.1 -1,-1.5 -2.1,-1.5 h -0.8 v -1.3 h 0.8 c 0.8,0 1.8,-0.4 1.8,-1.3 0,-0.6 -0.5,-1.1 -1.5,-1.1 -0.7,0 -1.5,0.3 -1.9,0.6 l -0.4,-1.2 c 0.5,-0.4 1.5,-0.7 2.6,-0.7 1.9,0 2.8,1 2.8,2.2 0,1 -0.6,1.7 -1.7,2.1 v 0 c 1.1,0.2 2,1 2,2.3 0,1.5 -1.3,2.8 -3.5,2.8 -1.1,0 -2.1,-0.3 -2.5,-0.6 z"
   id="path156" />
		<path
   class="st8"
   d="m 140.3,278.4 c 0,1.9 -1.1,2.9 -2.4,2.9 -1.3,0 -2.3,-1 -2.3,-2.7 0,-1.7 1,-2.9 2.4,-2.9 1.4,0 2.3,1.1 2.3,2.7 z m -3.4,0.1 c 0,1.1 0.4,1.8 1.1,1.8 0.7,0 1,-0.7 1,-1.8 0,-1 -0.3,-1.8 -1,-1.8 -0.7,0 -1.1,0.8 -1.1,1.8 z m 1.1,6.7 5.3,-9.4 h 1 l -5.3,9.4 z m 8.6,-3 c 0,1.9 -1.1,2.9 -2.4,2.9 -1.3,0 -2.3,-1 -2.3,-2.7 0,-1.7 1,-2.9 2.4,-2.9 1.4,0 2.3,1.1 2.3,2.7 z m -3.4,0.1 c 0,1 0.4,1.8 1.1,1.8 0.7,0 1,-0.7 1,-1.8 0,-1 -0.3,-1.8 -1,-1.8 -0.7,0 -1.1,0.8 -1.1,1.8 z"
   id="path157" />
	</g>
	<g
   id="g162"
   transform="translate(-9.44114,-203.23296)">
		<path
   class="st8"
   d="m 257.5,283.2 c 0.3,0.2 1.2,0.6 2.1,0.6 1.3,0 1.8,-0.7 1.8,-1.5 0,-1.1 -1,-1.5 -2.1,-1.5 h -0.8 v -1.3 h 0.8 c 0.8,0 1.8,-0.4 1.8,-1.3 0,-0.6 -0.5,-1.1 -1.5,-1.1 -0.7,0 -1.5,0.3 -1.9,0.6 l -0.4,-1.2 c 0.5,-0.4 1.5,-0.7 2.6,-0.7 1.9,0 2.8,1 2.8,2.2 0,1 -0.6,1.7 -1.7,2.1 v 0 c 1.1,0.2 2,1 2,2.3 0,1.5 -1.3,2.8 -3.5,2.8 -1.1,0 -2.1,-0.3 -2.5,-0.6 z"
   id="path158" />
		<path
   class="st8"
   d="m 265.3,283.2 c 0.3,0.2 1.2,0.6 2.1,0.6 1.3,0 1.8,-0.7 1.8,-1.5 0,-1.1 -1,-1.5 -2.1,-1.5 h -0.8 v -1.3 h 0.8 c 0.8,0 1.8,-0.4 1.8,-1.3 0,-0.6 -0.5,-1.1 -1.5,-1.1 -0.7,0 -1.5,0.3 -1.9,0.6 l -0.4,-1.2 c 0.5,-0.4 1.5,-0.7 2.6,-0.7 1.9,0 2.8,1 2.8,2.2 0,1 -0.6,1.7 -1.7,2.1 v 0 c 1.1,0.2 2,1 2,2.3 0,1.5 -1.3,2.8 -3.5,2.8 -1.1,0 -2.1,-0.3 -2.5,-0.6 z"
   id="path159" />
		<path
   class="st8"
   d="m 272.9,284.1 c 0,-0.6 0.4,-1.1 1.1,-1.1 0.6,0 1.1,0.4 1.1,1.1 0,0.6 -0.4,1.1 -1.1,1.1 -0.6,0 -1.1,-0.5 -1.1,-1.1 z"
   id="path160" />
		<path
   class="st8"
   d="m 276.8,283.2 c 0.3,0.2 1.2,0.6 2.1,0.6 1.3,0 1.8,-0.7 1.8,-1.5 0,-1.1 -1,-1.5 -2.1,-1.5 h -0.8 v -1.3 h 0.8 c 0.8,0 1.8,-0.4 1.8,-1.3 0,-0.6 -0.5,-1.1 -1.5,-1.1 -0.7,0 -1.5,0.3 -1.9,0.6 l -0.4,-1.2 c 0.5,-0.4 1.5,-0.7 2.6,-0.7 1.9,0 2.8,1 2.8,2.2 0,1 -0.6,1.7 -1.7,2.1 v 0 c 1.1,0.2 2,1 2,2.3 0,1.5 -1.3,2.8 -3.5,2.8 -1.1,0 -2.1,-0.3 -2.5,-0.6 z"
   id="path161" />
		<path
   class="st8"
   d="m 288.8,278.4 c 0,1.9 -1.1,2.9 -2.4,2.9 -1.3,0 -2.3,-1 -2.3,-2.7 0,-1.7 1,-2.9 2.4,-2.9 1.4,0 2.3,1.1 2.3,2.7 z m -3.4,0.1 c 0,1.1 0.4,1.8 1,1.8 0.7,0 1,-0.7 1,-1.8 0,-1 -0.3,-1.8 -1,-1.8 -0.6,0 -1,0.8 -1,1.8 z m 1.1,6.7 5.3,-9.4 h 1 l -5.3,9.4 z m 8.6,-3 c 0,1.9 -1.1,2.9 -2.4,2.9 -1.3,0 -2.3,-1 -2.3,-2.7 0,-1.7 1,-2.9 2.4,-2.9 1.4,0 2.3,1.1 2.3,2.7 z m -3.4,0.1 c 0,1 0.4,1.8 1,1.8 0.7,0 1,-0.7 1,-1.8 0,-1 -0.3,-1.8 -1,-1.8 -0.6,0 -1,0.8 -1,1.8 z"
   id="path162" />
	</g>
	<g
   id="g167"
   transform="translate(-9.44114,-203.23296)">
		<path
   class="st8"
   d="m 36.8,277.5 v 0 l -1.7,0.8 -0.3,-1.3 2.2,-1.1 h 1.4 v 9.1 h -1.7 v -7.5 z"
   id="path163" />
		<path
   class="st8"
   d="m 47.5,277.1 c -0.3,0 -0.5,0 -0.9,0 -1.9,0.2 -2.8,1.4 -3.1,2.7 v 0 c 0.4,-0.5 1.1,-0.9 2,-0.9 1.6,0 2.8,1.1 2.8,3 0,1.7 -1.3,3.2 -3.2,3.2 -2.2,0 -3.4,-1.7 -3.4,-3.9 0,-1.8 0.6,-3.2 1.6,-4.1 0.8,-0.8 1.9,-1.2 3.2,-1.3 0.4,0 0.7,0 0.9,0 z m -0.8,4.9 c 0,-1.1 -0.6,-1.8 -1.6,-1.8 -0.6,0 -1.2,0.4 -1.5,0.9 -0.1,0.1 -0.1,0.3 -0.1,0.5 0,1.2 0.6,2.2 1.7,2.2 0.9,0.1 1.5,-0.7 1.5,-1.8 z"
   id="path164" />
		<path
   class="st8"
   d="m 49.9,284.1 c 0,-0.6 0.4,-1.1 1.1,-1.1 0.6,0 1.1,0.4 1.1,1.1 0,0.6 -0.4,1.1 -1.1,1.1 -0.6,0 -1.1,-0.5 -1.1,-1.1 z"
   id="path165" />
		<path
   class="st8"
   d="m 59.7,275.9 v 1.1 l -3.9,8 H 54 l 3.8,-7.6 v 0 H 53.5 V 276 h 6.2 z"
   id="path166" />
		<path
   class="st8"
   d="m 65.8,278.4 c 0,1.9 -1.1,2.9 -2.4,2.9 -1.3,0 -2.3,-1 -2.3,-2.7 0,-1.7 1,-2.9 2.4,-2.9 1.4,0 2.3,1.1 2.3,2.7 z m -3.4,0.1 c 0,1.1 0.4,1.8 1.1,1.8 0.7,0 1,-0.7 1,-1.8 0,-1 -0.3,-1.8 -1,-1.8 -0.7,0 -1.1,0.8 -1.1,1.8 z m 1.1,6.7 5.3,-9.4 h 1 l -5.3,9.4 z m 8.6,-3 c 0,1.9 -1.1,2.9 -2.4,2.9 -1.3,0 -2.3,-1 -2.3,-2.7 0,-1.7 1,-2.9 2.4,-2.9 1.4,0 2.3,1.1 2.3,2.7 z m -3.4,0.1 c 0,1 0.4,1.8 1.1,1.8 0.7,0 1,-0.7 1,-1.8 0,-1 -0.3,-1.8 -1,-1.8 -0.8,0 -1.1,0.8 -1.1,1.8 z"
   id="path167" />
	</g>
	<g
   id="g172"
   transform="translate(-9.44114,-203.23296)">
		<path
   class="st8"
   d="m 183.8,277.5 v 0 l -1.7,0.8 -0.3,-1.3 2.2,-1.1 h 1.4 v 9.1 h -1.7 v -7.5 z"
   id="path168" />
		<path
   class="st8"
   d="m 194.5,277.1 c -0.3,0 -0.5,0 -0.9,0 -1.9,0.2 -2.8,1.4 -3.1,2.7 v 0 c 0.4,-0.5 1.1,-0.9 2,-0.9 1.6,0 2.8,1.1 2.8,3 0,1.7 -1.3,3.2 -3.2,3.2 -2.2,0 -3.4,-1.7 -3.4,-3.9 0,-1.8 0.6,-3.2 1.6,-4.1 0.8,-0.8 1.9,-1.2 3.2,-1.3 0.4,0 0.7,0 0.9,0 z m -0.8,4.9 c 0,-1.1 -0.6,-1.8 -1.6,-1.8 -0.6,0 -1.2,0.4 -1.5,0.9 -0.1,0.1 -0.1,0.3 -0.1,0.5 0,1.2 0.6,2.2 1.7,2.2 0.9,0.1 1.5,-0.7 1.5,-1.8 z"
   id="path169" />
		<path
   class="st8"
   d="m 196.9,284.1 c 0,-0.6 0.4,-1.1 1.1,-1.1 0.6,0 1.1,0.4 1.1,1.1 0,0.6 -0.4,1.1 -1.1,1.1 -0.6,0 -1.1,-0.5 -1.1,-1.1 z"
   id="path170" />
		<path
   class="st8"
   d="m 206.7,275.9 v 1.1 l -3.9,8 H 201 l 3.8,-7.6 v 0 h -4.3 V 276 h 6.2 z"
   id="path171" />
		<path
   class="st8"
   d="m 212.8,278.4 c 0,1.9 -1.1,2.9 -2.4,2.9 -1.3,0 -2.3,-1 -2.3,-2.7 0,-1.7 1,-2.9 2.4,-2.9 1.4,0 2.3,1.1 2.3,2.7 z m -3.4,0.1 c 0,1.1 0.4,1.8 1,1.8 0.7,0 1,-0.7 1,-1.8 0,-1 -0.3,-1.8 -1,-1.8 -0.6,0 -1,0.8 -1,1.8 z m 1.1,6.7 5.3,-9.4 h 1 l -5.3,9.4 z m 8.6,-3 c 0,1.9 -1.1,2.9 -2.4,2.9 -1.3,0 -2.3,-1 -2.3,-2.7 0,-1.7 1,-2.9 2.4,-2.9 1.4,0 2.3,1.1 2.3,2.7 z m -3.4,0.1 c 0,1 0.4,1.8 1,1.8 0.7,0 1,-0.7 1,-1.8 0,-1 -0.3,-1.8 -1,-1.8 -0.6,0 -1,0.8 -1,1.8 z"
   id="path172" />
	</g>
	<polyline
   class="st9"
   points="30.2,294 27.7,291.6 30.2,289.1  "
   id="polyline172"
   transform="translate(-9.44114,-203.23296)" />
	<polyline
   class="st9"
   points="72.5,289.1 75,291.6 72.5,294  "
   id="polyline173"
   transform="translate(-9.44114,-203.23296)" />
	<line
   class="st9"
   x1="18.558861"
   y1="88.367043"
   x2="65.358864"
   y2="88.367043"
   id="line173" />
	<polyline
   class="st9"
   points="178.1,294 175.6,291.6 178.1,289.1  "
   id="polyline174"
   transform="translate(-9.44114,-203.23296)" />
	<polyline
   class="st9"
   points="220.5,289.1 223,291.6 220.5,294  "
   id="polyline175"
   transform="translate(-9.44114,-203.23296)" />
	<line
   class="st9"
   x1="165.95885"
   y1="88.367043"
   x2="213.05885"
   y2="88.367043"
   id="line175" />
	<polyline
   class="st9"
   points="79.7,294 77.2,291.6 79.7,289.1  "
   id="polyline176"
   transform="translate(-9.44114,-203.23296)" />
	<polyline
   class="st9"
   points="170.8,289.1 173.3,291.6 170.8,294  "
   id="polyline177"
   transform="translate(-9.44114,-203.23296)" />
	<line
   class="st9"
   x1="67.658859"
   y1="88.367043"
   x2="163.55885"
   y2="88.367043"
   id="line177" />
	<polyline
   class="st9"
   points="227.6,294 225.1,291.6 227.6,289.1  "
   id="polyline178"
   transform="translate(-9.44114,-203.23296)" />
	<polyline
   class="st9"
   points="319.1,289.1 321.6,291.6 319.1,294  "
   id="polyline179"
   transform="translate(-9.44114,-203.23296)" />
	<line
   class="st9"
   x1="215.55885"
   y1="88.367043"
   x2="311.65887"
   y2="88.367043"
   id="line179" />
	<g
   id="g179">
	</g>
	<g
   id="g180">
	</g>
	<g
   id="g181">
	</g>
	<g
   id="g182">
	</g>
	<g
   id="g183">
	</g>
	<g
   id="g184">
	</g>
	<g
   id="g185">
	</g>
	<g
   id="g186">
	</g>
	<g
   id="g187">
	</g>
	<g
   id="g188">
	</g>
</g>
</svg>
