<?xml version="1.0" encoding="utf-8"?>
<!-- Generator: Adobe Illustrator 21.0.0, SVG Export Plug-In . SVG Version: 6.00 Build 0)  -->
<svg version="1.1" xmlns="http://www.w3.org/2000/svg" xmlns:xlink="http://www.w3.org/1999/xlink" x="0px" y="0px"
	 viewBox="0 0 350 401" style="enable-background:new 0 0 350 401;" xml:space="preserve">
<style type="text/css">
	.st0{opacity:0.8;fill:none;stroke:#E6E6E6;}
	.st1{fill:#808080;}
	.st2{fill:none;stroke:#1A1A1A;}
	.st3{fill:#F3646A;}
	.st4{fill:#F68F6A;}
	.st5{fill:#FAB666;}
	.st6{fill:#FFE066;}
	.st7{fill:#C1272D;}
	.st8{fill:#333333;}
	.st9{fill:none;stroke:#333333;}
	.st10{fill:none;stroke:#333333;stroke-width:1.5;}
</style>
<g id="Layer_2">
	<line class="st0" x1="64.5" y1="157.8" x2="64.5" y2="58.5"/>
	<line class="st0" x1="105.7" y1="157.8" x2="105.7" y2="58.5"/>
	<line class="st0" x1="150.1" y1="157.8" x2="150.1" y2="58.5"/>
	<line class="st0" x1="191.5" y1="157.8" x2="191.5" y2="58.5"/>
	<line class="st0" x1="235.7" y1="157.8" x2="235.7" y2="58.5"/>
	<line class="st0" x1="279.1" y1="157.8" x2="279.1" y2="58.5"/>
	<line class="st0" x1="322.4" y1="157.8" x2="322.4" y2="49"/>
	<g>
		<path class="st1" d="M25.8,168.1c0,2.4-0.9,3.8-2.5,3.8c-1.4,0-2.3-1.3-2.4-3.7c0-2.4,1-3.7,2.5-3.7
			C24.9,164.5,25.8,165.8,25.8,168.1z M21.9,168.2c0,1.9,0.6,2.9,1.5,2.9c1,0,1.5-1.2,1.5-3c0-1.8-0.5-2.9-1.5-2.9
			C22.5,165.2,21.9,166.2,21.9,168.2z"/>
	</g>
	<g>
		<path class="st1" d="M64.9,165.5L64.9,165.5l-1.3,0.7l-0.2-0.7l1.6-0.8h0.8v7.2h-0.9V165.5z"/>
	</g>
	<g>
		<path class="st1" d="M103.6,171.7v-0.6l0.8-0.7c1.8-1.7,2.7-2.7,2.7-3.7c0-0.7-0.4-1.4-1.4-1.4c-0.6,0-1.2,0.3-1.5,0.6l-0.3-0.7
			c0.5-0.4,1.2-0.7,2-0.7c1.5,0,2.2,1.1,2.2,2.1c0,1.3-1,2.4-2.5,3.8l-0.6,0.5v0h3.2v0.8H103.6z"/>
	</g>
	<g>
		<path class="st1" d="M148.6,170.6c0.3,0.2,0.9,0.5,1.6,0.5c1.2,0,1.6-0.8,1.6-1.4c0-1-0.9-1.4-1.8-1.4h-0.5v-0.7h0.5
			c0.7,0,1.6-0.4,1.6-1.2c0-0.6-0.4-1.1-1.3-1.1c-0.6,0-1.1,0.3-1.4,0.5l-0.3-0.7c0.4-0.3,1.1-0.6,1.9-0.6c1.4,0,2,0.8,2,1.7
			c0,0.7-0.4,1.4-1.3,1.7v0c0.9,0.2,1.6,0.8,1.6,1.8c0,1.1-0.9,2.1-2.6,2.1c-0.8,0-1.5-0.3-1.9-0.5L148.6,170.6z"/>
	</g>
	<g>
		<path class="st1" d="M192.1,171.7v-1.9h-3.3v-0.6l3.2-4.6h1v4.4h1v0.8h-1v1.9H192.1z M192.1,169v-2.4c0-0.4,0-0.7,0-1.1h0
			c-0.2,0.4-0.4,0.7-0.6,1.1l-1.7,2.4v0H192.1z"/>
	</g>
	<g>
		<path class="st1" d="M134,181.6c-0.8,1.1-1.4,2.5-1.4,4.5c0,2,0.6,3.4,1.4,4.5h-0.8c-0.7-0.9-1.4-2.3-1.4-4.5
			c0-2.2,0.7-3.6,1.4-4.5H134z"/>
		<path class="st1" d="M138.9,185.8H136v2.7h3.2v0.8h-4.2v-7.4h4v0.8h-3v2.3h2.9V185.8z"/>
		<path class="st1" d="M140.3,188.2c0.3,0.2,0.8,0.4,1.3,0.4c0.7,0,1-0.4,1-0.8c0-0.5-0.3-0.7-1-1c-1-0.3-1.4-0.9-1.4-1.5
			c0-0.9,0.7-1.6,1.8-1.6c0.5,0,1,0.2,1.3,0.3l-0.2,0.7c-0.2-0.1-0.6-0.3-1.1-0.3c-0.6,0-0.9,0.3-0.9,0.7c0,0.4,0.3,0.6,1,0.9
			c0.9,0.4,1.4,0.8,1.4,1.6c0,0.9-0.7,1.6-2,1.6c-0.6,0-1.1-0.1-1.5-0.4L140.3,188.2z"/>
		<path class="st1" d="M148.6,189c-0.3,0.1-0.8,0.3-1.5,0.3c-1.6,0-2.7-1.1-2.7-2.7c0-1.6,1.1-2.8,2.9-2.8c0.6,0,1.1,0.1,1.3,0.3
			l-0.2,0.7c-0.2-0.1-0.6-0.3-1.1-0.3c-1.2,0-1.9,0.9-1.9,2c0,1.2,0.8,2,1.8,2c0.6,0,0.9-0.1,1.2-0.3L148.6,189z"/>
		<path class="st1" d="M152.7,189.2l-0.1-0.7h0c-0.3,0.4-0.9,0.8-1.6,0.8c-1.1,0-1.6-0.8-1.6-1.5c0-1.3,1.1-2,3.2-2v-0.1
			c0-0.4-0.1-1.2-1.2-1.2c-0.5,0-1,0.2-1.4,0.4l-0.2-0.6c0.4-0.3,1.1-0.5,1.7-0.5c1.6,0,2,1.1,2,2.2v2c0,0.5,0,0.9,0.1,1.3H152.7z
			 M152.5,186.5c-1.1,0-2.3,0.2-2.3,1.2c0,0.6,0.4,0.9,0.9,0.9c0.7,0,1.1-0.4,1.3-0.9c0-0.1,0.1-0.2,0.1-0.3V186.5z"/>
		<path class="st1" d="M155,181.4h1v7.8h-1V181.4z"/>
		<path class="st1" d="M160.6,189.2l-0.1-0.7h0c-0.3,0.4-0.9,0.8-1.6,0.8c-1.1,0-1.6-0.8-1.6-1.5c0-1.3,1.1-2,3.2-2v-0.1
			c0-0.4-0.1-1.2-1.2-1.2c-0.5,0-1,0.2-1.4,0.4l-0.2-0.6c0.4-0.3,1.1-0.5,1.7-0.5c1.6,0,2,1.1,2,2.2v2c0,0.5,0,0.9,0.1,1.3H160.6z
			 M160.4,186.5c-1.1,0-2.3,0.2-2.3,1.2c0,0.6,0.4,0.9,0.9,0.9c0.7,0,1.1-0.4,1.3-0.9c0-0.1,0.1-0.2,0.1-0.3V186.5z"/>
		<path class="st1" d="M169.8,181.4v6.4c0,0.5,0,1,0,1.4H169l0-0.9h0c-0.3,0.6-0.9,1-1.8,1c-1.3,0-2.3-1.1-2.3-2.7
			c0-1.8,1.1-2.9,2.4-2.9c0.8,0,1.4,0.4,1.6,0.8h0v-3.2H169.8z M168.9,186.1c0-0.1,0-0.3,0-0.4c-0.1-0.6-0.7-1.1-1.4-1.1
			c-1,0-1.6,0.9-1.6,2.1c0,1.1,0.5,2,1.6,2c0.6,0,1.2-0.4,1.4-1.2c0-0.1,0-0.3,0-0.4V186.1z"/>
		<path class="st1" d="M172,186.7c0,1.3,0.9,1.8,1.8,1.8c0.7,0,1.1-0.1,1.5-0.3l0.2,0.7c-0.3,0.2-0.9,0.3-1.8,0.3
			c-1.6,0-2.6-1.1-2.6-2.7s0.9-2.9,2.5-2.9c1.7,0,2.2,1.5,2.2,2.5c0,0.2,0,0.4,0,0.5H172z M174.8,186.1c0-0.6-0.3-1.6-1.3-1.6
			c-1,0-1.4,0.9-1.5,1.6H174.8z"/>
		<path class="st1" d="M179.7,183.9l1,3c0.2,0.5,0.3,0.9,0.4,1.4h0c0.1-0.4,0.3-0.9,0.5-1.4l1-3h1l-2.1,5.3h-0.9l-2-5.3H179.7z"/>
		<path class="st1" d="M187.5,189.2l-0.1-0.7h0c-0.3,0.4-0.9,0.8-1.6,0.8c-1.1,0-1.6-0.8-1.6-1.5c0-1.3,1.1-2,3.2-2v-0.1
			c0-0.4-0.1-1.2-1.2-1.2c-0.5,0-1,0.2-1.4,0.4l-0.2-0.6c0.4-0.3,1.1-0.5,1.7-0.5c1.6,0,2,1.1,2,2.2v2c0,0.5,0,0.9,0.1,1.3H187.5z
			 M187.3,186.5c-1.1,0-2.3,0.2-2.3,1.2c0,0.6,0.4,0.9,0.9,0.9c0.7,0,1.1-0.4,1.3-0.9c0-0.1,0.1-0.2,0.1-0.3V186.5z"/>
		<path class="st1" d="M189.8,181.4h1v7.8h-1V181.4z"/>
		<path class="st1" d="M197.3,186.5c0,2-1.4,2.8-2.7,2.8c-1.4,0-2.6-1.1-2.6-2.7c0-1.8,1.2-2.8,2.6-2.8
			C196.2,183.8,197.3,184.9,197.3,186.5z M193,186.6c0,1.2,0.7,2,1.6,2c0.9,0,1.6-0.9,1.6-2.1c0-0.9-0.5-2-1.6-2
			C193.5,184.5,193,185.6,193,186.6z"/>
		<path class="st1" d="M198.5,185.6c0-0.6,0-1.2,0-1.7h0.8l0,1h0c0.2-0.7,0.8-1.2,1.5-1.2c0.1,0,0.2,0,0.3,0v0.9c-0.1,0-0.2,0-0.3,0
			c-0.7,0-1.2,0.5-1.3,1.2c0,0.1,0,0.3,0,0.5v2.8h-1V185.6z"/>
		<path class="st1" d="M202.5,186.7c0,1.3,0.9,1.8,1.8,1.8c0.7,0,1.1-0.1,1.5-0.3l0.2,0.7c-0.3,0.2-0.9,0.3-1.8,0.3
			c-1.6,0-2.6-1.1-2.6-2.7s0.9-2.9,2.5-2.9c1.7,0,2.2,1.5,2.2,2.5c0,0.2,0,0.4,0,0.5H202.5z M205.3,186.1c0-0.6-0.3-1.6-1.3-1.6
			c-1,0-1.4,0.9-1.5,1.6H205.3z"/>
		<path class="st1" d="M206.9,190.6c0.8-1.1,1.4-2.5,1.4-4.5c0-2-0.6-3.4-1.4-4.5h0.7c0.7,0.9,1.4,2.3,1.4,4.5
			c0,2.2-0.7,3.6-1.4,4.5H206.9z"/>
	</g>
	<g>
		<path class="st1" d="M123.4,369.6c-0.8,1.1-1.4,2.5-1.4,4.5c0,2,0.6,3.4,1.4,4.5h-0.8c-0.7-0.9-1.4-2.3-1.4-4.5
			c0-2.2,0.7-3.6,1.4-4.5H123.4z"/>
		<path class="st1" d="M128.3,373.8h-2.9v2.7h3.2v0.8h-4.2v-7.4h4v0.8h-3v2.3h2.9V373.8z"/>
		<path class="st1" d="M129.7,376.2c0.3,0.2,0.8,0.4,1.3,0.4c0.7,0,1-0.4,1-0.8c0-0.5-0.3-0.7-1-1c-1-0.3-1.4-0.9-1.4-1.5
			c0-0.9,0.7-1.6,1.8-1.6c0.5,0,1,0.2,1.3,0.3l-0.2,0.7c-0.2-0.1-0.6-0.3-1.1-0.3c-0.6,0-0.9,0.3-0.9,0.7c0,0.4,0.3,0.6,1,0.9
			c0.9,0.4,1.4,0.8,1.4,1.6c0,0.9-0.7,1.6-2,1.6c-0.6,0-1.1-0.1-1.5-0.4L129.7,376.2z"/>
		<path class="st1" d="M138,377c-0.3,0.1-0.8,0.3-1.5,0.3c-1.6,0-2.7-1.1-2.7-2.7c0-1.6,1.1-2.8,2.9-2.8c0.6,0,1.1,0.1,1.3,0.3
			l-0.2,0.7c-0.2-0.1-0.6-0.3-1.1-0.3c-1.2,0-1.9,0.9-1.9,2c0,1.2,0.8,2,1.8,2c0.6,0,0.9-0.1,1.2-0.3L138,377z"/>
		<path class="st1" d="M142.1,377.2l-0.1-0.7h0c-0.3,0.4-0.9,0.8-1.6,0.8c-1.1,0-1.6-0.8-1.6-1.5c0-1.3,1.1-2,3.2-2v-0.1
			c0-0.4-0.1-1.2-1.2-1.2c-0.5,0-1,0.2-1.4,0.4l-0.2-0.6c0.4-0.3,1.1-0.5,1.7-0.5c1.6,0,2,1.1,2,2.2v2c0,0.5,0,0.9,0.1,1.3H142.1z
			 M141.9,374.5c-1.1,0-2.3,0.2-2.3,1.2c0,0.6,0.4,0.9,0.9,0.9c0.7,0,1.1-0.4,1.3-0.9c0-0.1,0.1-0.2,0.1-0.3V374.5z"/>
		<path class="st1" d="M144.4,369.4h1v7.8h-1V369.4z"/>
		<path class="st1" d="M150,377.2l-0.1-0.7h0c-0.3,0.4-0.9,0.8-1.6,0.8c-1.1,0-1.6-0.8-1.6-1.5c0-1.3,1.1-2,3.2-2v-0.1
			c0-0.4-0.1-1.2-1.2-1.2c-0.5,0-1,0.2-1.4,0.4l-0.2-0.6c0.4-0.3,1.1-0.5,1.7-0.5c1.6,0,2,1.1,2,2.2v2c0,0.5,0,0.9,0.1,1.3H150z
			 M149.8,374.5c-1.1,0-2.3,0.2-2.3,1.2c0,0.6,0.4,0.9,0.9,0.9c0.7,0,1.1-0.4,1.3-0.9c0-0.1,0.1-0.2,0.1-0.3V374.5z"/>
		<path class="st1" d="M159.3,369.4v6.4c0,0.5,0,1,0,1.4h-0.9l0-0.9h0c-0.3,0.6-0.9,1-1.8,1c-1.3,0-2.3-1.1-2.3-2.7
			c0-1.8,1.1-2.9,2.4-2.9c0.8,0,1.4,0.4,1.6,0.8h0v-3.2H159.3z M158.3,374.1c0-0.1,0-0.3,0-0.4c-0.1-0.6-0.7-1.1-1.4-1.1
			c-1,0-1.6,0.9-1.6,2.1c0,1.1,0.5,2,1.6,2c0.6,0,1.2-0.4,1.4-1.2c0-0.1,0-0.3,0-0.4V374.1z"/>
		<path class="st1" d="M161.4,374.7c0,1.3,0.9,1.8,1.8,1.8c0.7,0,1.1-0.1,1.5-0.3l0.2,0.7c-0.3,0.2-0.9,0.3-1.8,0.3
			c-1.6,0-2.6-1.1-2.6-2.7s0.9-2.9,2.5-2.9c1.7,0,2.2,1.5,2.2,2.5c0,0.2,0,0.4,0,0.5H161.4z M164.2,374.1c0-0.6-0.3-1.6-1.3-1.6
			c-1,0-1.4,0.9-1.5,1.6H164.2z"/>
		<path class="st1" d="M168.7,373.6c0-0.7,0-1.2,0-1.7h0.9l0,0.9h0c0.4-0.6,1-1,1.9-1c1.3,0,2.3,1.1,2.3,2.7c0,1.9-1.2,2.9-2.4,2.9
			c-0.7,0-1.3-0.3-1.6-0.8h0v2.9h-1V373.6z M169.7,375.1c0,0.1,0,0.3,0,0.4c0.2,0.7,0.8,1.1,1.5,1.1c1,0,1.6-0.8,1.6-2.1
			c0-1.1-0.6-2-1.6-2c-0.7,0-1.3,0.5-1.5,1.2c0,0.1-0.1,0.3-0.1,0.4V375.1z"/>
		<path class="st1" d="M179.8,374.5c0,2-1.4,2.8-2.7,2.8c-1.4,0-2.6-1.1-2.6-2.7c0-1.8,1.2-2.8,2.6-2.8
			C178.8,371.8,179.8,372.9,179.8,374.5z M175.6,374.6c0,1.2,0.7,2,1.6,2c0.9,0,1.6-0.9,1.6-2.1c0-0.9-0.5-2-1.6-2
			C176.1,372.5,175.6,373.6,175.6,374.6z"/>
		<path class="st1" d="M181,373.6c0-0.6,0-1.2,0-1.7h0.8l0,1h0c0.2-0.7,0.8-1.2,1.5-1.2c0.1,0,0.2,0,0.3,0v0.9c-0.1,0-0.2,0-0.3,0
			c-0.7,0-1.2,0.5-1.3,1.2c0,0.1,0,0.3,0,0.5v2.8h-1V373.6z"/>
		<path class="st1" d="M188.3,377c-0.3,0.1-0.8,0.3-1.5,0.3c-1.6,0-2.7-1.1-2.7-2.7c0-1.6,1.1-2.8,2.9-2.8c0.6,0,1.1,0.1,1.3,0.3
			l-0.2,0.7c-0.2-0.1-0.6-0.3-1.1-0.3c-1.2,0-1.9,0.9-1.9,2c0,1.2,0.8,2,1.8,2c0.6,0,0.9-0.1,1.2-0.3L188.3,377z"/>
		<path class="st1" d="M189.9,374.7c0,1.3,0.9,1.8,1.8,1.8c0.7,0,1.1-0.1,1.5-0.3l0.2,0.7c-0.3,0.2-0.9,0.3-1.8,0.3
			c-1.6,0-2.6-1.1-2.6-2.7s0.9-2.9,2.5-2.9c1.7,0,2.2,1.5,2.2,2.5c0,0.2,0,0.4,0,0.5H189.9z M192.7,374.1c0-0.6-0.3-1.6-1.3-1.6
			c-1,0-1.4,0.9-1.5,1.6H192.7z"/>
		<path class="st1" d="M194.9,373.3c0-0.5,0-1,0-1.4h0.9l0.1,0.9h0c0.3-0.5,0.9-1,1.8-1c0.7,0,1.9,0.4,1.9,2.3v3.2h-1v-3.1
			c0-0.9-0.3-1.6-1.2-1.6c-0.6,0-1.1,0.5-1.3,1c0,0.1-0.1,0.3-0.1,0.5v3.2h-1V373.3z"/>
		<path class="st1" d="M202.1,370.4v1.5h1.4v0.7h-1.4v2.9c0,0.7,0.2,1,0.7,1c0.3,0,0.4,0,0.6-0.1l0,0.7c-0.2,0.1-0.5,0.1-0.9,0.1
			c-0.5,0-0.8-0.1-1-0.4c-0.3-0.3-0.4-0.8-0.4-1.4v-2.9h-0.8v-0.7h0.8v-1.3L202.1,370.4z"/>
		<path class="st1" d="M207.5,377.2l-0.1-0.7h0c-0.3,0.4-0.9,0.8-1.6,0.8c-1.1,0-1.6-0.8-1.6-1.5c0-1.3,1.1-2,3.2-2v-0.1
			c0-0.4-0.1-1.2-1.2-1.2c-0.5,0-1,0.2-1.4,0.4l-0.2-0.6c0.4-0.3,1.1-0.5,1.7-0.5c1.6,0,2,1.1,2,2.2v2c0,0.5,0,0.9,0.1,1.3H207.5z
			 M207.4,374.5c-1.1,0-2.3,0.2-2.3,1.2c0,0.6,0.4,0.9,0.9,0.9c0.7,0,1.1-0.4,1.3-0.9c0-0.1,0.1-0.2,0.1-0.3V374.5z"/>
		<path class="st1" d="M208.6,378.8c0.4,0,0.8-0.2,1.1-0.4c0.3-0.3,0.4-0.7,0.4-2v-4.5h1v4.8c0,1-0.2,1.7-0.6,2.2
			c-0.4,0.4-1.1,0.6-1.7,0.6L208.6,378.8z M211.1,370.4c0,0.3-0.2,0.6-0.6,0.6c-0.4,0-0.6-0.3-0.6-0.6c0-0.3,0.3-0.6,0.6-0.6
			C210.8,369.8,211.1,370.1,211.1,370.4z"/>
		<path class="st1" d="M213.1,374.7c0,1.3,0.9,1.8,1.8,1.8c0.7,0,1.1-0.1,1.5-0.3l0.2,0.7c-0.3,0.2-0.9,0.3-1.8,0.3
			c-1.6,0-2.6-1.1-2.6-2.7s0.9-2.9,2.5-2.9c1.7,0,2.2,1.5,2.2,2.5c0,0.2,0,0.4,0,0.5H213.1z M215.9,374.1c0-0.6-0.3-1.6-1.3-1.6
			c-1,0-1.4,0.9-1.5,1.6H215.9z"/>
		<path class="st1" d="M217.5,378.6c0.8-1.1,1.4-2.5,1.4-4.5c0-2-0.6-3.4-1.4-4.5h0.7c0.7,0.9,1.4,2.3,1.4,4.5
			c0,2.2-0.7,3.6-1.4,4.5H217.5z"/>
	</g>
	<g>
		<path class="st1" d="M238.2,165.4h-2.7l-0.3,1.8c0.2,0,0.3,0,0.6,0c0.5,0,1.1,0.1,1.5,0.4c0.6,0.3,1,0.9,1,1.8
			c0,1.4-1.1,2.4-2.7,2.4c-0.8,0-1.4-0.2-1.8-0.4l0.2-0.7c0.3,0.2,0.9,0.4,1.5,0.4c0.9,0,1.7-0.6,1.7-1.6c0-0.9-0.6-1.6-2.1-1.6
			c-0.4,0-0.7,0-1,0.1l0.5-3.4h3.4V165.4z"/>
	</g>
	<g>
		<path class="st1" d="M280.8,165.3c-0.2,0-0.5,0-0.7,0c-1.5,0.3-2.3,1.4-2.5,2.5h0c0.3-0.5,0.9-0.8,1.7-0.8c1.3,0,2.2,0.9,2.2,2.3
			c0,1.3-0.9,2.5-2.4,2.5c-1.5,0-2.5-1.2-2.5-3c0-1.4,0.5-2.5,1.2-3.2c0.6-0.6,1.4-0.9,2.3-1.1c0.3,0,0.5-0.1,0.7-0.1V165.3z
			 M280.5,169.4c0-1-0.6-1.6-1.5-1.6c-0.6,0-1.1,0.4-1.4,0.9c-0.1,0.1-0.1,0.3-0.1,0.4c0,1.2,0.6,2,1.6,2
			C279.9,171.1,280.5,170.4,280.5,169.4z"/>
	</g>
	<g>
		<path class="st1" d="M323.6,164.6v0.6l-3.1,6.5h-1l3.1-6.3v0h-3.5v-0.8H323.6z"/>
	</g>
	<line class="st2" x1="25" y1="158.5" x2="323" y2="158.5"/>
	<line class="st2" x1="64.5" y1="158.8" x2="64.5" y2="154.7"/>
	<line class="st2" x1="105.8" y1="158.8" x2="105.8" y2="154.7"/>
	<line class="st2" x1="150.1" y1="158.8" x2="150.1" y2="154.7"/>
	<line class="st2" x1="191.5" y1="158.8" x2="191.5" y2="154.7"/>
	<line class="st2" x1="235.8" y1="158.8" x2="235.8" y2="154.7"/>
	<line class="st2" x1="279.1" y1="158.8" x2="279.1" y2="154.7"/>
	<line class="st2" x1="322.4" y1="158.6" x2="322.4" y2="154.7"/>
	<line class="st2" x1="25.5" y1="158" x2="25.5" y2="58.8"/>
	<line class="st2" x1="22.9" y1="58.2" x2="28" y2="58.2"/>
	<polyline class="st3" points="279.6,109.8 191.1,109.8 191.1,147.2 279.6,147.2 279.6,109.8 	"/>
	<path class="st4" d="M150.3,147.2L150.3,147.2L150.3,147.2 M191.2,109.8h-40.9v37.3h40.9V109.8"/>
	<path class="st5" d="M62.8,147.2L62.8,147.2L62.8,147.2 M150.5,109.8H62.8v37.3h87.7V109.8"/>
	<polyline class="st6" points="65.1,109.8 26,109.8 26,147.2 65.1,147.2 65.1,109.8 	"/>
	<line class="st0" x1="55.1" y1="344.8" x2="55.1" y2="245"/>
	<line class="st0" x1="85" y1="344.8" x2="85" y2="245"/>
	<line class="st0" x1="114.6" y1="344.8" x2="114.6" y2="245"/>
	<line class="st0" x1="144.3" y1="344.8" x2="144.3" y2="245"/>
	<line class="st0" x1="174" y1="344.8" x2="174" y2="245"/>
	<line class="st0" x1="203.7" y1="344.8" x2="203.7" y2="245"/>
	<line class="st0" x1="233.4" y1="344.8" x2="233.4" y2="245"/>
	<line class="st0" x1="263" y1="344.8" x2="263" y2="245"/>
	<line class="st0" x1="292.8" y1="344.8" x2="292.8" y2="245"/>
	<line class="st0" x1="322.4" y1="344.8" x2="322.4" y2="245"/>
	<g>
		<path class="st1" d="M25.8,355.1c0,2.4-0.9,3.8-2.5,3.8c-1.4,0-2.3-1.3-2.4-3.7c0-2.4,1-3.7,2.5-3.7
			C24.9,351.5,25.8,352.8,25.8,355.1z M21.9,355.2c0,1.9,0.6,2.9,1.5,2.9c1,0,1.5-1.2,1.5-3c0-1.8-0.5-2.9-1.5-2.9
			C22.5,352.2,21.9,353.2,21.9,355.2z"/>
	</g>
	<g>
		<path class="st1" d="M47.4,352.5L47.4,352.5l-1.3,0.7l-0.2-0.7l1.6-0.8h0.8v7.2h-0.9V352.5z"/>
		<path class="st1" d="M55.7,355.1c0,2.4-0.9,3.8-2.5,3.8c-1.4,0-2.3-1.3-2.4-3.7c0-2.4,1-3.7,2.5-3.7
			C54.8,351.5,55.7,352.8,55.7,355.1z M51.8,355.2c0,1.9,0.6,2.9,1.5,2.9c1,0,1.5-1.2,1.5-3c0-1.8-0.5-2.9-1.5-2.9
			C52.4,352.2,51.8,353.2,51.8,355.2z"/>
		<path class="st1" d="M59.8,353.6c0,1.5-0.8,2.3-1.7,2.3c-0.9,0-1.7-0.7-1.7-2.2c0-1.4,0.8-2.2,1.7-2.2
			C59.1,351.5,59.8,352.2,59.8,353.6z M57.2,353.7c0,0.9,0.3,1.6,0.9,1.6c0.6,0,0.9-0.7,0.9-1.6c0-0.9-0.3-1.6-0.9-1.6
			C57.5,352,57.2,352.8,57.2,353.7z M58,358.9l4.2-7.4h0.6l-4.2,7.4H58z M64.4,356.6c0,1.5-0.8,2.3-1.7,2.3c-0.9,0-1.7-0.7-1.7-2.1
			c0-1.4,0.8-2.2,1.7-2.2C63.8,354.4,64.4,355.2,64.4,356.6z M61.8,356.6c0,0.9,0.3,1.6,0.9,1.6c0.6,0,0.9-0.7,0.9-1.6
			c0-0.9-0.3-1.6-0.9-1.6C62.1,355,61.8,355.7,61.8,356.6z"/>
	</g>
	<g>
		<path class="st1" d="M75.4,358.7v-0.6l0.8-0.7c1.8-1.7,2.7-2.7,2.7-3.7c0-0.7-0.4-1.4-1.4-1.4c-0.6,0-1.2,0.3-1.5,0.6l-0.3-0.7
			c0.5-0.4,1.2-0.7,2-0.7c1.5,0,2.2,1.1,2.2,2.1c0,1.3-1,2.4-2.5,3.8l-0.6,0.5v0H80v0.8H75.4z"/>
		<path class="st1" d="M85.8,355.1c0,2.4-0.9,3.8-2.5,3.8c-1.4,0-2.3-1.3-2.4-3.7c0-2.4,1-3.7,2.5-3.7
			C84.9,351.5,85.8,352.8,85.8,355.1z M81.9,355.2c0,1.9,0.6,2.9,1.5,2.9c1,0,1.5-1.2,1.5-3c0-1.8-0.5-2.9-1.5-2.9
			C82.5,352.2,81.9,353.2,81.9,355.2z"/>
		<path class="st1" d="M89.9,353.6c0,1.5-0.8,2.3-1.7,2.3c-0.9,0-1.7-0.7-1.7-2.2c0-1.4,0.8-2.2,1.7-2.2
			C89.2,351.5,89.9,352.2,89.9,353.6z M87.3,353.7c0,0.9,0.3,1.6,0.9,1.6c0.6,0,0.9-0.7,0.9-1.6c0-0.9-0.3-1.6-0.9-1.6
			C87.6,352,87.3,352.8,87.3,353.7z M88.1,358.9l4.2-7.4h0.6l-4.2,7.4H88.1z M94.5,356.6c0,1.5-0.8,2.3-1.7,2.3
			c-0.9,0-1.7-0.7-1.7-2.1c0-1.4,0.8-2.2,1.7-2.2C93.9,354.4,94.5,355.2,94.5,356.6z M91.9,356.6c0,0.9,0.3,1.6,0.9,1.6
			c0.6,0,0.9-0.7,0.9-1.6c0-0.9-0.3-1.6-0.9-1.6C92.3,355,91.9,355.7,91.9,356.6z"/>
	</g>
	<g>
		<path class="st1" d="M105.1,357.6c0.3,0.2,0.9,0.5,1.6,0.5c1.2,0,1.6-0.8,1.6-1.4c0-1-0.9-1.4-1.8-1.4h-0.5v-0.7h0.5
			c0.7,0,1.6-0.4,1.6-1.2c0-0.6-0.4-1.1-1.3-1.1c-0.6,0-1.1,0.3-1.4,0.5l-0.3-0.7c0.4-0.3,1.1-0.6,1.9-0.6c1.4,0,2,0.8,2,1.7
			c0,0.7-0.4,1.4-1.3,1.7v0c0.9,0.2,1.6,0.8,1.6,1.8c0,1.1-0.9,2.1-2.6,2.1c-0.8,0-1.5-0.3-1.9-0.5L105.1,357.6z"/>
		<path class="st1" d="M115.3,355.1c0,2.4-0.9,3.8-2.5,3.8c-1.4,0-2.3-1.3-2.4-3.7c0-2.4,1-3.7,2.5-3.7
			C114.4,351.5,115.3,352.8,115.3,355.1z M111.4,355.2c0,1.9,0.6,2.9,1.5,2.9c1,0,1.5-1.2,1.5-3c0-1.8-0.5-2.9-1.5-2.9
			C112,352.2,111.4,353.2,111.4,355.2z"/>
		<path class="st1" d="M119.4,353.6c0,1.5-0.8,2.3-1.7,2.3c-0.9,0-1.7-0.7-1.7-2.2c0-1.4,0.8-2.2,1.7-2.2
			C118.7,351.5,119.4,352.2,119.4,353.6z M116.8,353.7c0,0.9,0.3,1.6,0.9,1.6c0.6,0,0.9-0.7,0.9-1.6c0-0.9-0.3-1.6-0.9-1.6
			C117.1,352,116.8,352.8,116.8,353.7z M117.6,358.9l4.2-7.4h0.6l-4.2,7.4H117.6z M124,356.6c0,1.5-0.8,2.3-1.7,2.3
			c-0.9,0-1.7-0.7-1.7-2.1c0-1.4,0.8-2.2,1.7-2.2C123.4,354.4,124,355.2,124,356.6z M121.4,356.6c0,0.9,0.3,1.6,0.9,1.6
			c0.6,0,0.9-0.7,0.9-1.6c0-0.9-0.3-1.6-0.9-1.6C121.8,355,121.4,355.7,121.4,356.6z"/>
	</g>
	<g>
		<path class="st1" d="M137.4,358.7v-1.9h-3.3v-0.6l3.2-4.6h1v4.4h1v0.8h-1v1.9H137.4z M137.4,356v-2.4c0-0.4,0-0.7,0-1.1h0
			c-0.2,0.4-0.4,0.7-0.6,1.1L135,356v0H137.4z"/>
		<path class="st1" d="M144.8,355.1c0,2.4-0.9,3.8-2.5,3.8c-1.4,0-2.3-1.3-2.4-3.7c0-2.4,1-3.7,2.5-3.7
			C143.9,351.5,144.8,352.8,144.8,355.1z M140.9,355.2c0,1.9,0.6,2.9,1.5,2.9c1,0,1.5-1.2,1.5-3c0-1.8-0.5-2.9-1.5-2.9
			C141.5,352.2,140.9,353.2,140.9,355.2z"/>
		<path class="st1" d="M148.9,353.6c0,1.5-0.8,2.3-1.7,2.3c-0.9,0-1.7-0.7-1.7-2.2c0-1.4,0.8-2.2,1.7-2.2
			C148.2,351.5,148.9,352.2,148.9,353.6z M146.3,353.7c0,0.9,0.3,1.6,0.9,1.6c0.6,0,0.9-0.7,0.9-1.6c0-0.9-0.3-1.6-0.9-1.6
			C146.6,352,146.3,352.8,146.3,353.7z M147.1,358.9l4.2-7.4h0.6l-4.2,7.4H147.1z M153.5,356.6c0,1.5-0.8,2.3-1.7,2.3
			c-0.9,0-1.7-0.7-1.7-2.1c0-1.4,0.8-2.2,1.7-2.2C152.9,354.4,153.5,355.2,153.5,356.6z M150.9,356.6c0,0.9,0.3,1.6,0.9,1.6
			c0.6,0,0.9-0.7,0.9-1.6c0-0.9-0.3-1.6-0.9-1.6C151.3,355,150.9,355.7,150.9,356.6z"/>
	</g>
	<g>
		<path class="st1" d="M168.4,352.4h-2.7l-0.3,1.8c0.2,0,0.3,0,0.6,0c0.6,0,1.1,0.1,1.5,0.4c0.6,0.3,1,0.9,1,1.8
			c0,1.4-1.1,2.4-2.7,2.4c-0.8,0-1.4-0.2-1.8-0.4l0.2-0.7c0.3,0.2,0.9,0.4,1.5,0.4c0.9,0,1.7-0.6,1.7-1.6c0-0.9-0.6-1.6-2.1-1.6
			c-0.4,0-0.7,0-1,0.1l0.5-3.4h3.4V352.4z"/>
		<path class="st1" d="M174.5,355.1c0,2.4-0.9,3.8-2.5,3.8c-1.4,0-2.3-1.3-2.4-3.7c0-2.4,1-3.7,2.5-3.7
			C173.7,351.5,174.5,352.8,174.5,355.1z M170.6,355.2c0,1.9,0.6,2.9,1.5,2.9c1,0,1.5-1.2,1.5-3c0-1.8-0.5-2.9-1.5-2.9
			C171.3,352.2,170.6,353.2,170.6,355.2z"/>
		<path class="st1" d="M178.6,353.6c0,1.5-0.8,2.3-1.7,2.3c-0.9,0-1.7-0.7-1.7-2.2c0-1.4,0.8-2.2,1.7-2.2
			C178,351.5,178.6,352.2,178.6,353.6z M176,353.7c0,0.9,0.3,1.6,0.9,1.6c0.6,0,0.9-0.7,0.9-1.6c0-0.9-0.3-1.6-0.9-1.6
			C176.3,352,176,352.8,176,353.7z M176.9,358.9l4.2-7.4h0.6l-4.2,7.4H176.9z M183.3,356.6c0,1.5-0.8,2.3-1.7,2.3
			c-0.9,0-1.7-0.7-1.7-2.1c0-1.4,0.8-2.2,1.7-2.2C182.6,354.4,183.3,355.2,183.3,356.6z M180.7,356.6c0,0.9,0.3,1.6,0.9,1.6
			c0.6,0,0.9-0.7,0.9-1.6c0-0.9-0.3-1.6-0.9-1.6C181,355,180.7,355.7,180.7,356.6z"/>
	</g>
	<g>
		<path class="st1" d="M198.7,352.3c-0.2,0-0.5,0-0.7,0c-1.5,0.3-2.3,1.4-2.5,2.5h0c0.3-0.5,0.9-0.8,1.7-0.8c1.3,0,2.2,0.9,2.2,2.3
			c0,1.3-0.9,2.5-2.4,2.5c-1.5,0-2.5-1.2-2.5-3c0-1.4,0.5-2.5,1.2-3.2c0.6-0.6,1.4-0.9,2.3-1.1c0.3,0,0.5-0.1,0.7-0.1V352.3z
			 M198.4,356.4c0-1-0.6-1.6-1.5-1.6c-0.6,0-1.1,0.4-1.4,0.9c-0.1,0.1-0.1,0.3-0.1,0.4c0,1.2,0.6,2,1.6,2
			C197.9,358.1,198.4,357.4,198.4,356.4z"/>
		<path class="st1" d="M205,355.1c0,2.4-0.9,3.8-2.5,3.8c-1.4,0-2.3-1.3-2.4-3.7c0-2.4,1-3.7,2.5-3.7
			C204.2,351.5,205,352.8,205,355.1z M201.1,355.2c0,1.9,0.6,2.9,1.5,2.9c1,0,1.5-1.2,1.5-3c0-1.8-0.5-2.9-1.5-2.9
			C201.8,352.2,201.1,353.2,201.1,355.2z"/>
		<path class="st1" d="M209.1,353.6c0,1.5-0.8,2.3-1.7,2.3c-0.9,0-1.7-0.7-1.7-2.2c0-1.4,0.8-2.2,1.7-2.2
			C208.5,351.5,209.1,352.2,209.1,353.6z M206.5,353.7c0,0.9,0.3,1.6,0.9,1.6c0.6,0,0.9-0.7,0.9-1.6c0-0.9-0.3-1.6-0.9-1.6
			C206.8,352,206.5,352.8,206.5,353.7z M207.4,358.9l4.2-7.4h0.6l-4.2,7.4H207.4z M213.8,356.6c0,1.5-0.8,2.3-1.7,2.3
			c-0.9,0-1.7-0.7-1.7-2.1c0-1.4,0.8-2.2,1.7-2.2C213.1,354.4,213.8,355.2,213.8,356.6z M211.2,356.6c0,0.9,0.3,1.6,0.9,1.6
			c0.6,0,0.9-0.7,0.9-1.6c0-0.9-0.3-1.6-0.9-1.6C211.5,355,211.2,355.7,211.2,356.6z"/>
	</g>
	<g>
		<path class="st1" d="M228.8,351.6v0.6l-3.1,6.5h-1l3.1-6.3v0h-3.5v-0.8H228.8z"/>
		<path class="st1" d="M234.5,355.1c0,2.4-0.9,3.8-2.5,3.8c-1.4,0-2.3-1.3-2.4-3.7c0-2.4,1-3.7,2.5-3.7
			C233.7,351.5,234.5,352.8,234.5,355.1z M230.6,355.2c0,1.9,0.6,2.9,1.5,2.9c1,0,1.5-1.2,1.5-3c0-1.8-0.5-2.9-1.5-2.9
			C231.3,352.2,230.6,353.2,230.6,355.2z"/>
		<path class="st1" d="M238.6,353.6c0,1.5-0.8,2.3-1.7,2.3c-0.9,0-1.7-0.7-1.7-2.2c0-1.4,0.8-2.2,1.7-2.2
			C238,351.5,238.6,352.2,238.6,353.6z M236,353.7c0,0.9,0.3,1.6,0.9,1.6c0.6,0,0.9-0.7,0.9-1.6c0-0.9-0.3-1.6-0.9-1.6
			C236.3,352,236,352.8,236,353.7z M236.9,358.9l4.2-7.4h0.6l-4.2,7.4H236.9z M243.3,356.6c0,1.5-0.8,2.3-1.7,2.3
			c-0.9,0-1.7-0.7-1.7-2.1c0-1.4,0.8-2.2,1.7-2.2C242.6,354.4,243.3,355.2,243.3,356.6z M240.7,356.6c0,0.9,0.3,1.6,0.9,1.6
			c0.6,0,0.9-0.7,0.9-1.6c0-0.9-0.3-1.6-0.9-1.6C241,355,240.7,355.7,240.7,356.6z"/>
	</g>
	<g>
		<path class="st1" d="M253,356.9c0-0.9,0.5-1.5,1.4-1.9l0,0c-0.8-0.4-1.1-1-1.1-1.6c0-1.1,1-1.9,2.2-1.9c1.4,0,2.1,0.9,2.1,1.8
			c0,0.6-0.3,1.3-1.2,1.7v0c0.9,0.4,1.4,1,1.4,1.8c0,1.2-1.1,2.1-2.4,2.1C253.9,358.9,253,358,253,356.9z M256.9,356.9
			c0-0.9-0.6-1.3-1.6-1.6c-0.8,0.2-1.3,0.8-1.3,1.5c0,0.7,0.5,1.4,1.4,1.4C256.3,358.1,256.9,357.6,256.9,356.9z M254.2,353.3
			c0,0.7,0.5,1.1,1.4,1.3c0.6-0.2,1.1-0.6,1.1-1.3c0-0.6-0.3-1.2-1.2-1.2C254.7,352.2,254.2,352.7,254.2,353.3z"/>
		<path class="st1" d="M263.5,355.1c0,2.4-0.9,3.8-2.5,3.8c-1.4,0-2.3-1.3-2.4-3.7c0-2.4,1-3.7,2.5-3.7
			C262.7,351.5,263.5,352.8,263.5,355.1z M259.6,355.2c0,1.9,0.6,2.9,1.5,2.9c1,0,1.5-1.2,1.5-3c0-1.8-0.5-2.9-1.5-2.9
			C260.3,352.2,259.6,353.2,259.6,355.2z"/>
		<path class="st1" d="M267.6,353.6c0,1.5-0.8,2.3-1.7,2.3c-0.9,0-1.7-0.7-1.7-2.2c0-1.4,0.8-2.2,1.7-2.2
			C267,351.5,267.6,352.2,267.6,353.6z M265,353.7c0,0.9,0.3,1.6,0.9,1.6c0.6,0,0.9-0.7,0.9-1.6c0-0.9-0.3-1.6-0.9-1.6
			C265.3,352,265,352.8,265,353.7z M265.9,358.9l4.2-7.4h0.6l-4.2,7.4H265.9z M272.3,356.6c0,1.5-0.8,2.3-1.7,2.3
			c-0.9,0-1.7-0.7-1.7-2.1c0-1.4,0.8-2.2,1.7-2.2C271.6,354.4,272.3,355.2,272.3,356.6z M269.7,356.6c0,0.9,0.3,1.6,0.9,1.6
			c0.6,0,0.9-0.7,0.9-1.6c0-0.9-0.3-1.6-0.9-1.6C270,355,269.7,355.7,269.7,356.6z"/>
	</g>
	<g>
		<path class="st1" d="M284.2,358.1c0.2,0,0.5,0,0.8,0c0.6-0.1,1.1-0.3,1.5-0.7c0.5-0.4,0.8-1.1,0.9-1.9h0c-0.4,0.5-1,0.8-1.7,0.8
			c-1.3,0-2.1-1-2.1-2.2c0-1.4,1-2.5,2.4-2.5s2.4,1.2,2.4,3c0,1.6-0.5,2.7-1.2,3.4c-0.5,0.5-1.3,0.9-2.1,1c-0.4,0.1-0.7,0.1-0.9,0.1
			V358.1z M284.5,353.9c0,0.9,0.5,1.5,1.4,1.5c0.6,0,1.2-0.3,1.4-0.7c0.1-0.1,0.1-0.2,0.1-0.4c0-1.2-0.5-2.2-1.5-2.2
			C285.1,352.2,284.5,352.9,284.5,353.9z"/>
		<path class="st1" d="M294,355.1c0,2.4-0.9,3.8-2.5,3.8c-1.4,0-2.3-1.3-2.4-3.7c0-2.4,1-3.7,2.5-3.7
			C293.2,351.5,294,352.8,294,355.1z M290.1,355.2c0,1.9,0.6,2.9,1.5,2.9c1,0,1.5-1.2,1.5-3c0-1.8-0.5-2.9-1.5-2.9
			C290.8,352.2,290.1,353.2,290.1,355.2z"/>
		<path class="st1" d="M298.1,353.6c0,1.5-0.8,2.3-1.7,2.3c-0.9,0-1.7-0.7-1.7-2.2c0-1.4,0.8-2.2,1.7-2.2
			C297.5,351.5,298.1,352.2,298.1,353.6z M295.5,353.7c0,0.9,0.3,1.6,0.9,1.6c0.6,0,0.9-0.7,0.9-1.6c0-0.9-0.3-1.6-0.9-1.6
			C295.8,352,295.5,352.8,295.5,353.7z M296.4,358.9l4.2-7.4h0.6l-4.2,7.4H296.4z M302.8,356.6c0,1.5-0.8,2.3-1.7,2.3
			c-0.9,0-1.7-0.7-1.7-2.1c0-1.4,0.8-2.2,1.7-2.2C302.1,354.4,302.8,355.2,302.8,356.6z M300.2,356.6c0,0.9,0.3,1.6,0.9,1.6
			c0.6,0,0.9-0.7,0.9-1.6c0-0.9-0.3-1.6-0.9-1.6C300.5,355,300.2,355.7,300.2,356.6z"/>
	</g>
	<g>
		<path class="st1" d="M312.6,352.5L312.6,352.5l-1.3,0.7l-0.2-0.7l1.6-0.8h0.8v7.2h-0.9V352.5z"/>
		<path class="st1" d="M320.9,355.1c0,2.4-0.9,3.8-2.5,3.8c-1.4,0-2.3-1.3-2.4-3.7c0-2.4,1-3.7,2.5-3.7
			C320,351.5,320.9,352.8,320.9,355.1z M317,355.2c0,1.9,0.6,2.9,1.5,2.9c1,0,1.5-1.2,1.5-3c0-1.8-0.5-2.9-1.5-2.9
			C317.6,352.2,317,353.2,317,355.2z"/>
		<path class="st1" d="M326.5,355.1c0,2.4-0.9,3.8-2.5,3.8c-1.4,0-2.3-1.3-2.4-3.7c0-2.4,1-3.7,2.5-3.7
			C325.7,351.5,326.5,352.8,326.5,355.1z M322.6,355.2c0,1.9,0.6,2.9,1.5,2.9c1,0,1.5-1.2,1.5-3c0-1.8-0.5-2.9-1.5-2.9
			C323.2,352.2,322.6,353.2,322.6,355.2z"/>
		<path class="st1" d="M330.6,353.6c0,1.5-0.8,2.3-1.7,2.3c-0.9,0-1.7-0.7-1.7-2.2c0-1.4,0.8-2.2,1.7-2.2
			C330,351.5,330.6,352.2,330.6,353.6z M328,353.7c0,0.9,0.3,1.6,0.9,1.6c0.6,0,0.9-0.7,0.9-1.6c0-0.9-0.3-1.6-0.9-1.6
			C328.3,352,328,352.8,328,353.7z M328.8,358.9l4.2-7.4h0.6l-4.2,7.4H328.8z M335.3,356.6c0,1.5-0.8,2.3-1.7,2.3
			c-0.9,0-1.7-0.7-1.7-2.1c0-1.4,0.8-2.2,1.7-2.2C334.6,354.4,335.3,355.2,335.3,356.6z M332.7,356.6c0,0.9,0.3,1.6,0.9,1.6
			c0.6,0,0.9-0.7,0.9-1.6c0-0.9-0.3-1.6-0.9-1.6C333,355,332.7,355.7,332.7,356.6z"/>
	</g>
	<line class="st2" x1="25" y1="345.5" x2="323" y2="345.5"/>
	<line class="st2" x1="55.2" y1="345.8" x2="55.2" y2="341.7"/>
	<line class="st2" x1="84.9" y1="345.8" x2="84.9" y2="341.7"/>
	<line class="st2" x1="114.6" y1="345.8" x2="114.6" y2="341.7"/>
	<line class="st2" x1="144.3" y1="345.8" x2="144.3" y2="341.7"/>
	<line class="st2" x1="174" y1="345.8" x2="174" y2="341.7"/>
	<line class="st2" x1="203.7" y1="345.8" x2="203.7" y2="341.7"/>
	<line class="st2" x1="233.4" y1="345.8" x2="233.4" y2="341.7"/>
	<line class="st2" x1="263" y1="345.8" x2="263" y2="341.7"/>
	<line class="st2" x1="292.7" y1="345.8" x2="292.7" y2="341.7"/>
	<line class="st2" x1="322.4" y1="345.6" x2="322.4" y2="341.7"/>
	<line class="st2" x1="25.5" y1="345" x2="25.5" y2="245.3"/>
	<line class="st2" x1="22.9" y1="244.8" x2="28" y2="244.8"/>
	<polyline class="st3" points="322.8,295.9 223.8,295.9 223.8,333.2 322.8,333.2 322.8,295.9 	"/>
	<path class="st4" d="M174.4,333.2L174.4,333.2L174.4,333.2 M223.8,295.9h-49.4v37.3h49.4V295.9"/>
	<path class="st5" d="M75.7,333.2h-0.1H75.7 M174.4,295.9H75.7v37.3h98.7V295.9"/>
	<polyline class="st6" points="75.8,295.9 26,295.9 26,333.2 75.8,333.2 75.8,295.9 	"/>
</g>
<g id="Layer_1">
	<g>
		<path class="st7" d="M25.4,33.8c0.2,0.3,0.4,0.5,0.6,0.7c0.3,0.2,0.6,0.3,0.9,0.4c0.3,0.1,0.7,0.1,1.1,0.1c0.3,0,0.5,0,0.8-0.1
			c0.3,0,0.6-0.1,0.8-0.2s0.5-0.3,0.6-0.5c0.2-0.2,0.3-0.5,0.3-0.8c0-0.3-0.1-0.6-0.3-0.8c-0.2-0.2-0.5-0.4-0.9-0.5
			c-0.4-0.1-0.8-0.3-1.2-0.4c-0.5-0.1-0.9-0.2-1.4-0.4c-0.5-0.1-0.9-0.3-1.4-0.4c-0.5-0.2-0.9-0.4-1.2-0.7c-0.4-0.3-0.7-0.6-0.9-1
			s-0.3-0.9-0.3-1.5c0-0.7,0.1-1.2,0.4-1.7c0.3-0.5,0.7-0.9,1.1-1.2s1-0.6,1.5-0.7c0.6-0.2,1.2-0.2,1.7-0.2c0.7,0,1.3,0.1,1.9,0.2
			c0.6,0.2,1.2,0.4,1.6,0.7s0.9,0.8,1.1,1.3c0.3,0.5,0.4,1.2,0.4,1.9h-2.7c0-0.4-0.1-0.7-0.2-1s-0.3-0.4-0.5-0.6
			c-0.2-0.1-0.5-0.2-0.8-0.3c-0.3-0.1-0.6-0.1-1-0.1c-0.2,0-0.5,0-0.7,0.1c-0.2,0-0.4,0.1-0.6,0.3c-0.2,0.1-0.3,0.3-0.5,0.5
			c-0.1,0.2-0.2,0.4-0.2,0.7c0,0.3,0,0.5,0.1,0.6c0.1,0.2,0.3,0.3,0.6,0.4c0.3,0.1,0.7,0.3,1.2,0.4c0.5,0.1,1.1,0.3,2,0.5
			c0.2,0,0.6,0.1,1,0.3c0.4,0.1,0.8,0.3,1.3,0.6c0.4,0.3,0.8,0.6,1.1,1.1s0.5,1.1,0.5,1.8c0,0.6-0.1,1.1-0.3,1.6
			c-0.2,0.5-0.6,0.9-1,1.3c-0.5,0.4-1,0.7-1.7,0.9c-0.7,0.2-1.4,0.3-2.3,0.3c-0.7,0-1.4-0.1-2.1-0.3s-1.3-0.4-1.8-0.8
			c-0.5-0.4-0.9-0.8-1.2-1.4c-0.3-0.6-0.4-1.3-0.4-2.1h2.7C25.2,33.2,25.2,33.5,25.4,33.8z"/>
		<path class="st7" d="M35.2,26.3v-2.1h2.6v2.1H35.2z M37.7,27.7V37h-2.6v-9.3H37.7z"/>
		<path class="st7" d="M42.7,27.7V29h0c0.3-0.5,0.7-0.9,1.2-1.1c0.5-0.3,1-0.4,1.6-0.4c0.6,0,1.1,0.1,1.6,0.3
			c0.5,0.2,0.9,0.6,1.1,1.2c0.3-0.4,0.7-0.8,1.1-1.1c0.5-0.3,1-0.5,1.7-0.5c0.5,0,0.9,0.1,1.4,0.2c0.4,0.1,0.8,0.3,1.1,0.6
			c0.3,0.3,0.5,0.6,0.7,1c0.2,0.4,0.3,0.9,0.3,1.5V37h-2.6v-5.3c0-0.3,0-0.6,0-0.9s-0.1-0.5-0.2-0.7s-0.3-0.4-0.5-0.5
			s-0.5-0.2-0.9-0.2s-0.7,0.1-0.9,0.2c-0.2,0.1-0.4,0.3-0.5,0.5c-0.1,0.2-0.2,0.5-0.3,0.8c0,0.3-0.1,0.6-0.1,0.9V37h-2.6v-5.2
			c0-0.3,0-0.5,0-0.8c0-0.3-0.1-0.5-0.2-0.7s-0.2-0.4-0.5-0.5s-0.5-0.2-0.9-0.2c-0.1,0-0.3,0-0.5,0.1c-0.2,0.1-0.4,0.2-0.6,0.3
			c-0.2,0.2-0.3,0.4-0.5,0.6c-0.1,0.3-0.2,0.7-0.2,1.1V37h-2.6v-9.3H42.7z"/>
		<path class="st7" d="M59.4,27.7v1.2h0c0.3-0.5,0.7-0.9,1.2-1.1c0.5-0.2,1-0.3,1.6-0.3c0.7,0,1.4,0.1,1.9,0.4
			c0.5,0.3,1,0.6,1.3,1.1c0.3,0.5,0.6,1,0.8,1.6c0.2,0.6,0.3,1.2,0.3,1.9c0,0.6-0.1,1.2-0.3,1.8c-0.2,0.6-0.4,1.1-0.8,1.5
			c-0.3,0.4-0.8,0.8-1.3,1.1c-0.5,0.3-1.1,0.4-1.8,0.4c-0.6,0-1.1-0.1-1.6-0.4c-0.5-0.2-0.9-0.6-1.2-1h0v4.4H57V27.7H59.4z
			 M62.7,35.1c0.3-0.2,0.5-0.4,0.7-0.7c0.2-0.3,0.3-0.6,0.4-0.9c0.1-0.4,0.1-0.7,0.1-1.1s0-0.7-0.1-1.1c-0.1-0.4-0.2-0.7-0.4-1
			c-0.2-0.3-0.4-0.5-0.7-0.7c-0.3-0.2-0.6-0.3-1-0.3c-0.4,0-0.8,0.1-1.1,0.3c-0.3,0.2-0.5,0.4-0.7,0.7c-0.2,0.3-0.3,0.6-0.4,1
			c-0.1,0.4-0.1,0.7-0.1,1.1c0,0.4,0,0.7,0.1,1.1c0.1,0.4,0.2,0.7,0.4,0.9c0.2,0.3,0.4,0.5,0.7,0.7s0.6,0.3,1,0.3
			C62.1,35.3,62.4,35.2,62.7,35.1z"/>
		<path class="st7" d="M71,24.1V37h-2.6V24.1H71z"/>
		<path class="st7" d="M76.2,34.8c0.4,0.4,0.9,0.6,1.7,0.6c0.5,0,1-0.1,1.3-0.4c0.4-0.3,0.6-0.5,0.7-0.8h2.2
			c-0.4,1.1-0.9,1.9-1.7,2.4c-0.7,0.5-1.6,0.7-2.7,0.7c-0.7,0-1.4-0.1-2-0.4s-1.1-0.6-1.5-1c-0.4-0.4-0.7-0.9-0.9-1.5
			s-0.3-1.3-0.3-2c0-0.7,0.1-1.3,0.3-1.9c0.2-0.6,0.6-1.1,1-1.6c0.4-0.4,0.9-0.8,1.5-1s1.2-0.4,1.9-0.4c0.8,0,1.5,0.2,2.1,0.5
			c0.6,0.3,1.1,0.7,1.4,1.2s0.7,1.1,0.8,1.8c0.2,0.7,0.2,1.4,0.2,2.1h-6.7C75.6,33.8,75.9,34.4,76.2,34.8z M79.1,29.9
			c-0.3-0.3-0.8-0.5-1.4-0.5c-0.4,0-0.7,0.1-1,0.2c-0.3,0.1-0.5,0.3-0.6,0.5s-0.3,0.4-0.3,0.6c-0.1,0.2-0.1,0.4-0.1,0.6h4.2
			C79.6,30.7,79.4,30.2,79.1,29.9z"/>
	</g>
	<g>
		<path class="st7" d="M26.5,226v-8.2h-3.2v-1.9c0.4,0,0.9,0,1.3-0.1s0.8-0.2,1.1-0.4c0.3-0.2,0.6-0.5,0.8-0.8
			c0.2-0.3,0.4-0.7,0.5-1.2h2V226H26.5z"/>
		<path class="st7" d="M32.8,216.6c0.2-0.8,0.6-1.5,1-2c0.4-0.5,0.9-0.9,1.5-1.1c0.6-0.2,1.1-0.3,1.8-0.3c0.6,0,1.2,0.1,1.8,0.3
			c0.6,0.2,1.1,0.6,1.5,1.1c0.4,0.5,0.8,1.2,1,2c0.2,0.8,0.4,1.9,0.4,3.1c0,1.3-0.1,2.3-0.4,3.2c-0.2,0.8-0.6,1.5-1,2
			s-0.9,0.9-1.5,1.1c-0.6,0.2-1.2,0.3-1.8,0.3c-0.6,0-1.2-0.1-1.8-0.3c-0.6-0.2-1-0.6-1.5-1.1c-0.4-0.5-0.8-1.2-1-2
			c-0.2-0.8-0.4-1.9-0.4-3.2C32.4,218.4,32.5,217.4,32.8,216.6z M35,220.9c0,0.5,0.1,1,0.2,1.5c0.1,0.5,0.3,0.9,0.6,1.2
			s0.7,0.5,1.2,0.5c0.5,0,0.9-0.2,1.2-0.5c0.3-0.3,0.5-0.7,0.6-1.2c0.1-0.5,0.2-1,0.2-1.5c0-0.5,0-0.9,0-1.3c0-0.2,0-0.5,0-0.8
			c0-0.3,0-0.6-0.1-0.9c0-0.3-0.1-0.6-0.2-1s-0.2-0.6-0.4-0.9c-0.2-0.3-0.4-0.5-0.6-0.6c-0.2-0.2-0.5-0.2-0.9-0.2s-0.6,0.1-0.9,0.2
			c-0.2,0.2-0.4,0.4-0.6,0.6c-0.2,0.3-0.3,0.5-0.4,0.9s-0.1,0.6-0.2,1c0,0.3-0.1,0.6-0.1,0.9c0,0.3,0,0.6,0,0.8
			C34.9,220,35,220.4,35,220.9z"/>
		<path class="st7" d="M42.8,216.6c0.2-0.8,0.6-1.5,1-2c0.4-0.5,0.9-0.9,1.5-1.1c0.6-0.2,1.1-0.3,1.8-0.3c0.6,0,1.2,0.1,1.8,0.3
			c0.6,0.2,1.1,0.6,1.5,1.1c0.4,0.5,0.8,1.2,1,2c0.2,0.8,0.4,1.9,0.4,3.1c0,1.3-0.1,2.3-0.4,3.2c-0.2,0.8-0.6,1.5-1,2
			s-0.9,0.9-1.5,1.1c-0.6,0.2-1.2,0.3-1.8,0.3c-0.6,0-1.2-0.1-1.8-0.3c-0.6-0.2-1-0.6-1.5-1.1c-0.4-0.5-0.8-1.2-1-2
			c-0.2-0.8-0.4-1.9-0.4-3.2C42.4,218.4,42.5,217.4,42.8,216.6z M45,220.9c0,0.5,0.1,1,0.2,1.5c0.1,0.5,0.3,0.9,0.6,1.2
			s0.7,0.5,1.2,0.5c0.5,0,0.9-0.2,1.2-0.5c0.3-0.3,0.5-0.7,0.6-1.2c0.1-0.5,0.2-1,0.2-1.5c0-0.5,0-0.9,0-1.3c0-0.2,0-0.5,0-0.8
			c0-0.3,0-0.6-0.1-0.9c0-0.3-0.1-0.6-0.2-1s-0.2-0.6-0.4-0.9c-0.2-0.3-0.4-0.5-0.6-0.6c-0.2-0.2-0.5-0.2-0.9-0.2s-0.6,0.1-0.9,0.2
			c-0.2,0.2-0.4,0.4-0.6,0.6c-0.2,0.3-0.3,0.5-0.4,0.9s-0.1,0.6-0.2,1c0,0.3-0.1,0.6-0.1,0.9c0,0.3,0,0.6,0,0.8
			C45,220,45,220.4,45,220.9z"/>
		<path class="st7" d="M53.6,215.3c0.1-0.4,0.3-0.8,0.6-1.1c0.3-0.3,0.6-0.6,1-0.8c0.4-0.2,0.8-0.3,1.4-0.3c0.6,0,1,0.1,1.4,0.3
			s0.7,0.5,0.9,0.8c0.2,0.3,0.4,0.7,0.5,1.2c0.1,0.4,0.1,0.9,0.1,1.4s-0.1,0.9-0.2,1.4c-0.1,0.4-0.3,0.8-0.5,1.1
			c-0.2,0.3-0.6,0.5-0.9,0.7c-0.4,0.2-0.8,0.3-1.4,0.3c-0.6,0-1-0.1-1.4-0.3c-0.4-0.2-0.7-0.4-0.9-0.7c-0.2-0.3-0.4-0.7-0.5-1.1
			c-0.1-0.4-0.2-0.9-0.2-1.4C53.4,216.2,53.4,215.8,53.6,215.3z M55.2,217.4c0,0.2,0.1,0.5,0.1,0.7c0.1,0.2,0.2,0.4,0.3,0.5
			s0.4,0.2,0.7,0.2c0.3,0,0.5-0.1,0.7-0.2s0.3-0.3,0.4-0.5c0.1-0.2,0.1-0.4,0.1-0.7c0-0.2,0-0.4,0-0.6c0-0.2,0-0.4,0-0.7
			c0-0.3-0.1-0.5-0.1-0.7c-0.1-0.2-0.2-0.4-0.3-0.6s-0.4-0.3-0.6-0.3c-0.3,0-0.5,0.1-0.7,0.2c-0.2,0.2-0.3,0.3-0.4,0.6
			c-0.1,0.2-0.1,0.5-0.2,0.7c0,0.3,0,0.5,0,0.7C55.2,216.9,55.2,217.2,55.2,217.4z M65.6,213l-7.4,13.4h-1.6L64,213H65.6z
			 M62.8,221.3c0.1-0.4,0.3-0.8,0.6-1.1s0.6-0.6,1-0.7c0.4-0.2,0.8-0.3,1.4-0.3c0.6,0,1,0.1,1.4,0.3c0.4,0.2,0.7,0.4,0.9,0.8
			c0.2,0.3,0.4,0.7,0.5,1.1s0.1,0.9,0.1,1.4c0,0.5-0.1,0.9-0.2,1.4c-0.1,0.4-0.3,0.8-0.5,1.1s-0.6,0.6-0.9,0.7
			c-0.4,0.2-0.8,0.3-1.4,0.3c-0.6,0-1-0.1-1.4-0.3c-0.4-0.2-0.7-0.4-0.9-0.7c-0.2-0.3-0.4-0.7-0.5-1.1c-0.1-0.4-0.2-0.9-0.2-1.4
			S62.7,221.8,62.8,221.3z M64.5,223.4c0,0.3,0.1,0.5,0.1,0.7c0.1,0.2,0.2,0.4,0.3,0.6c0.2,0.2,0.4,0.2,0.7,0.2
			c0.3,0,0.5-0.1,0.7-0.2c0.2-0.2,0.3-0.3,0.4-0.6c0.1-0.2,0.1-0.5,0.1-0.7c0-0.2,0-0.5,0-0.7c0-0.2,0-0.4,0-0.6
			c0-0.2-0.1-0.5-0.1-0.7c-0.1-0.2-0.2-0.4-0.3-0.6c-0.1-0.2-0.4-0.2-0.6-0.2c-0.3,0-0.5,0.1-0.7,0.2s-0.3,0.3-0.4,0.5
			c-0.1,0.2-0.1,0.5-0.2,0.7s0,0.5,0,0.7C64.5,222.9,64.5,223.1,64.5,223.4z"/>
	</g>
	<g>
		<path class="st8" d="M103.1,99.5v-1.1l1.1-1c2.1-2,3.2-3.1,3.2-4.3c0-0.8-0.4-1.5-1.6-1.5c-0.8,0-1.5,0.4-1.9,0.8l-0.5-1.2
			c0.7-0.5,1.7-0.9,2.8-0.9c2,0,3,1.3,3,2.8c0,1.6-1.1,2.9-2.7,4.4l-0.8,0.7v0h3.7v1.4H103.1z"/>
	</g>
	<g>
		<path class="st8" d="M123.8,60.5h-2.7v-1.4h7.1v1.4h-2.7v8h-1.7V60.5z"/>
		<path class="st8" d="M137.7,63.7c0,3.2-1.9,5-4.5,5c-2.7,0-4.3-2-4.3-4.8c0-2.9,1.8-4.9,4.5-4.9C136.1,58.9,137.7,61,137.7,63.7z
			 M130.6,63.8c0,1.9,1,3.4,2.6,3.4c1.7,0,2.6-1.5,2.6-3.5c0-1.8-0.9-3.5-2.6-3.5C131.5,60.3,130.6,61.9,130.6,63.8z"/>
		<path class="st8" d="M140.9,60.5h-2.7v-1.4h7.1v1.4h-2.7v8h-1.7V60.5z"/>
		<path class="st8" d="M147.7,65.8l-0.8,2.7h-1.8l3-9.4h2.2l3.1,9.4h-1.8l-0.9-2.7H147.7z M150.4,64.5l-0.7-2.3
			c-0.2-0.6-0.3-1.2-0.5-1.8h0c-0.1,0.5-0.3,1.2-0.4,1.8l-0.7,2.3H150.4z"/>
		<path class="st8" d="M155.1,59.1h1.7v8h3.9v1.4h-5.6V59.1z"/>
		<path class="st8" d="M165.1,63.9v-1.1h7.2v1.1H165.1z M165.1,66.7v-1.1h7.2v1.1H165.1z"/>
		<path class="st8" d="M185.9,60.6c-0.3,0-0.5,0-0.9,0c-1.9,0.2-2.8,1.4-3.1,2.7h0c0.4-0.5,1.1-0.9,2-0.9c1.6,0,2.8,1.1,2.8,3
			c0,1.7-1.3,3.2-3.2,3.2c-2.2,0-3.4-1.7-3.4-3.9c0-1.8,0.6-3.2,1.6-4.1c0.8-0.8,1.9-1.2,3.2-1.3c0.4,0,0.7,0,0.9,0L185.9,60.6z
			 M185.1,65.5c0-1.1-0.6-1.8-1.6-1.8c-0.6,0-1.2,0.4-1.5,0.9c-0.1,0.1-0.1,0.3-0.1,0.5c0,1.2,0.6,2.2,1.7,2.2
			C184.5,67.4,185.1,66.6,185.1,65.5z"/>
	</g>
	<g>
		<path class="st8" d="M232.1,99.5v-1.1l1.1-1c2.1-2,3.2-3.1,3.2-4.3c0-0.8-0.4-1.5-1.6-1.5c-0.8,0-1.5,0.4-1.9,0.8l-0.5-1.2
			c0.7-0.5,1.7-0.9,2.8-0.9c2,0,3,1.3,3,2.8c0,1.6-1.1,2.9-2.7,4.4l-0.8,0.7v0h3.7v1.4H232.1z"/>
	</g>
	<g>
		<path class="st8" d="M43.8,92L43.8,92l-1.7,0.8l-0.3-1.3l2.2-1.1h1.4v9.1h-1.7V92z"/>
	</g>
	<g>
		<path class="st8" d="M169.8,92L169.8,92l-1.7,0.8l-0.3-1.3l2.2-1.1h1.4v9.1h-1.7V92z"/>
	</g>
	<polyline class="st9" points="30.2,108.5 27.7,106.1 30.2,103.6 	"/>
	<polyline class="st9" points="61,103.6 63.5,106.1 61,108.5 	"/>
	<line class="st9" x1="28" y1="106.1" x2="63.4" y2="106.1"/>
	<polyline class="st9" points="153.8,108.5 151.3,106.1 153.8,103.6 	"/>
	<polyline class="st9" points="187.9,103.6 190.3,106.1 187.9,108.5 	"/>
	<line class="st9" x1="151.8" y1="106.1" x2="189.8" y2="106.1"/>
	<polyline class="st9" points="68.1,108.5 65.6,106.1 68.1,103.6 	"/>
	<polyline class="st9" points="146.4,103.6 148.9,106.1 146.4,108.5 	"/>
	<line class="st9" x1="65.5" y1="106.1" x2="148.5" y2="106.1"/>
	<polyline class="st9" points="31.3,79.9 27.8,76.4 31.3,72.9 	"/>
	<polyline class="st9" points="274.8,72.9 278.2,76.4 274.8,79.9 	"/>
	<line class="st10" x1="27.8" y1="76.4" x2="277.8" y2="76.4"/>
	<g>
		<path class="st8" d="M131.1,248h-2.7v-1.4h7.1v1.4h-2.7v8h-1.7V248z"/>
		<path class="st8" d="M145,251.2c0,3.2-1.9,5-4.5,5c-2.7,0-4.3-2-4.3-4.8c0-2.9,1.8-4.9,4.5-4.9C143.4,246.4,145,248.5,145,251.2z
			 M138,251.3c0,1.9,1,3.4,2.6,3.4c1.7,0,2.6-1.5,2.6-3.5c0-1.8-0.9-3.5-2.6-3.5C138.9,247.8,138,249.4,138,251.3z"/>
		<path class="st8" d="M148.3,248h-2.7v-1.4h7.1v1.4H150v8h-1.7V248z"/>
		<path class="st8" d="M155,253.3l-0.8,2.7h-1.8l3-9.4h2.2l3.1,9.4h-1.8l-0.9-2.7H155z M157.7,252l-0.7-2.3
			c-0.2-0.6-0.3-1.2-0.5-1.8h0c-0.1,0.5-0.3,1.2-0.4,1.8l-0.7,2.3H157.7z"/>
		<path class="st8" d="M162.4,246.6h1.7v8h3.9v1.4h-5.6V246.6z"/>
		<path class="st8" d="M172.5,251.4v-1.1h7.2v1.1H172.5z M172.5,254.2v-1.1h7.2v1.1H172.5z"/>
		<path class="st8" d="M190.4,248.5L190.4,248.5l-1.7,0.8l-0.3-1.3l2.2-1.1h1.4v9.1h-1.7V248.5z"/>
		<path class="st8" d="M202,251.4c0,2.9-1.1,4.8-3.3,4.8c-2.1,0-3.2-1.9-3.2-4.7c0-2.8,1.2-4.7,3.3-4.7
			C201,246.7,202,248.7,202,251.4z M197.2,251.5c0,2.2,0.6,3.4,1.6,3.4c1,0,1.5-1.2,1.5-3.4c0-2.1-0.5-3.4-1.5-3.4
			C197.8,248.1,197.1,249.2,197.2,251.5z"/>
		<path class="st8" d="M209.8,251.4c0,2.9-1.1,4.8-3.3,4.8c-2.1,0-3.2-1.9-3.2-4.7c0-2.8,1.2-4.7,3.3-4.7
			C208.8,246.7,209.8,248.7,209.8,251.4z M205,251.5c0,2.2,0.6,3.4,1.6,3.4c1,0,1.5-1.2,1.5-3.4c0-2.1-0.5-3.4-1.5-3.4
			C205.6,248.1,205,249.2,205,251.5z"/>
		<path class="st8" d="M215.7,249.4c0,1.9-1.1,2.9-2.4,2.9c-1.3,0-2.3-1-2.3-2.7c0-1.7,1-2.9,2.4-2.9
			C214.9,246.7,215.7,247.8,215.7,249.4z M212.4,249.5c0,1.1,0.4,1.8,1.1,1.8s1-0.7,1-1.8c0-1-0.3-1.8-1-1.8
			C212.7,247.7,212.4,248.5,212.4,249.5z M213.4,256.2l5.3-9.4h1l-5.3,9.4H213.4z M222,253.2c0,1.9-1.1,2.9-2.4,2.9s-2.3-1-2.3-2.7
			c0-1.7,1-2.9,2.4-2.9C221.2,250.5,222,251.6,222,253.2z M218.6,253.3c0,1,0.4,1.8,1.1,1.8c0.7,0,1-0.7,1-1.8c0-1-0.3-1.8-1-1.8
			C219,251.5,218.6,252.3,218.6,253.3z"/>
	</g>
	<polyline class="st9" points="31.3,267.4 27.8,263.9 31.3,260.4 	"/>
	<polyline class="st9" points="318.4,260.4 321.9,263.9 318.4,267.4 	"/>
	<line class="st10" x1="27.8" y1="263.9" x2="321.2" y2="263.9"/>
	<polyline class="st9" points="194.9,108.5 192.4,106.1 194.9,103.6 	"/>
	<polyline class="st9" points="275.4,103.6 277.9,106.1 275.4,108.5 	"/>
	<line class="st9" x1="193.1" y1="106.1" x2="277.4" y2="106.1"/>
	<g>
		<path class="st8" d="M109,283.2c0.4,0.2,1.2,0.6,2.1,0.6c1.3,0,1.8-0.7,1.8-1.5c0-1.1-1-1.5-2.1-1.5H110v-1.3h0.8
			c0.8,0,1.8-0.4,1.8-1.3c0-0.6-0.5-1.1-1.5-1.1c-0.7,0-1.5,0.3-1.9,0.6l-0.4-1.2c0.5-0.4,1.5-0.7,2.6-0.7c1.9,0,2.8,1,2.8,2.2
			c0,1-0.6,1.7-1.7,2.1v0c1.1,0.2,2,1,2,2.3c0,1.5-1.3,2.8-3.5,2.8c-1.1,0-2.1-0.3-2.5-0.6L109,283.2z"/>
		<path class="st8" d="M116.8,283.2c0.4,0.2,1.2,0.6,2.1,0.6c1.3,0,1.8-0.7,1.8-1.5c0-1.1-1-1.5-2.1-1.5h-0.8v-1.3h0.8
			c0.8,0,1.8-0.4,1.8-1.3c0-0.6-0.5-1.1-1.5-1.1c-0.7,0-1.5,0.3-1.9,0.6l-0.4-1.2c0.5-0.4,1.5-0.7,2.6-0.7c1.9,0,2.8,1,2.8,2.2
			c0,1-0.6,1.7-1.7,2.1v0c1.1,0.2,2,1,2,2.3c0,1.5-1.3,2.8-3.5,2.8c-1.1,0-2.1-0.3-2.5-0.6L116.8,283.2z"/>
		<path class="st8" d="M124.4,284.1c0-0.6,0.4-1.1,1.1-1.1c0.6,0,1.1,0.4,1.1,1.1c0,0.6-0.4,1.1-1.1,1.1
			C124.9,285.2,124.4,284.7,124.4,284.1z"/>
		<path class="st8" d="M128.3,283.2c0.4,0.2,1.2,0.6,2.1,0.6c1.3,0,1.8-0.7,1.8-1.5c0-1.1-1-1.5-2.1-1.5h-0.8v-1.3h0.8
			c0.8,0,1.8-0.4,1.8-1.3c0-0.6-0.5-1.1-1.5-1.1c-0.7,0-1.5,0.3-1.9,0.6l-0.4-1.2c0.5-0.4,1.5-0.7,2.6-0.7c1.9,0,2.8,1,2.8,2.2
			c0,1-0.6,1.7-1.7,2.1v0c1.1,0.2,2,1,2,2.3c0,1.5-1.3,2.8-3.5,2.8c-1.1,0-2.1-0.3-2.5-0.6L128.3,283.2z"/>
		<path class="st8" d="M140.3,278.4c0,1.9-1.1,2.9-2.4,2.9c-1.3,0-2.3-1-2.3-2.7c0-1.7,1-2.9,2.4-2.9
			C139.4,275.7,140.3,276.8,140.3,278.4z M136.9,278.5c0,1.1,0.4,1.8,1.1,1.8c0.7,0,1-0.7,1-1.8c0-1-0.3-1.8-1-1.8
			C137.3,276.7,136.9,277.5,136.9,278.5z M138,285.2l5.3-9.4h1l-5.3,9.4H138z M146.6,282.2c0,1.9-1.1,2.9-2.4,2.9
			c-1.3,0-2.3-1-2.3-2.7c0-1.7,1-2.9,2.4-2.9C145.7,279.5,146.6,280.6,146.6,282.2z M143.2,282.3c0,1,0.4,1.8,1.1,1.8
			c0.7,0,1-0.7,1-1.8c0-1-0.3-1.8-1-1.8C143.6,280.5,143.2,281.3,143.2,282.3z"/>
	</g>
	<g>
		<path class="st8" d="M257.5,283.2c0.3,0.2,1.2,0.6,2.1,0.6c1.3,0,1.8-0.7,1.8-1.5c0-1.1-1-1.5-2.1-1.5h-0.8v-1.3h0.8
			c0.8,0,1.8-0.4,1.8-1.3c0-0.6-0.5-1.1-1.5-1.1c-0.7,0-1.5,0.3-1.9,0.6l-0.4-1.2c0.5-0.4,1.5-0.7,2.6-0.7c1.9,0,2.8,1,2.8,2.2
			c0,1-0.6,1.7-1.7,2.1v0c1.1,0.2,2,1,2,2.3c0,1.5-1.3,2.8-3.5,2.8c-1.1,0-2.1-0.3-2.5-0.6L257.5,283.2z"/>
		<path class="st8" d="M265.3,283.2c0.3,0.2,1.2,0.6,2.1,0.6c1.3,0,1.8-0.7,1.8-1.5c0-1.1-1-1.5-2.1-1.5h-0.8v-1.3h0.8
			c0.8,0,1.8-0.4,1.8-1.3c0-0.6-0.5-1.1-1.5-1.1c-0.7,0-1.5,0.3-1.9,0.6l-0.4-1.2c0.5-0.4,1.5-0.7,2.6-0.7c1.9,0,2.8,1,2.8,2.2
			c0,1-0.6,1.7-1.7,2.1v0c1.1,0.2,2,1,2,2.3c0,1.5-1.3,2.8-3.5,2.8c-1.1,0-2.1-0.3-2.5-0.6L265.3,283.2z"/>
		<path class="st8" d="M272.9,284.1c0-0.6,0.4-1.1,1.1-1.1c0.6,0,1.1,0.4,1.1,1.1c0,0.6-0.4,1.1-1.1,1.1
			C273.4,285.2,272.9,284.7,272.9,284.1z"/>
		<path class="st8" d="M276.8,283.2c0.3,0.2,1.2,0.6,2.1,0.6c1.3,0,1.8-0.7,1.8-1.5c0-1.1-1-1.5-2.1-1.5h-0.8v-1.3h0.8
			c0.8,0,1.8-0.4,1.8-1.3c0-0.6-0.5-1.1-1.5-1.1c-0.7,0-1.5,0.3-1.9,0.6l-0.4-1.2c0.5-0.4,1.5-0.7,2.6-0.7c1.9,0,2.8,1,2.8,2.2
			c0,1-0.6,1.7-1.7,2.1v0c1.1,0.2,2,1,2,2.3c0,1.5-1.3,2.8-3.5,2.8c-1.1,0-2.1-0.3-2.5-0.6L276.8,283.2z"/>
		<path class="st8" d="M288.8,278.4c0,1.9-1.1,2.9-2.4,2.9c-1.3,0-2.3-1-2.3-2.7c0-1.7,1-2.9,2.4-2.9
			C287.9,275.7,288.8,276.8,288.8,278.4z M285.4,278.5c0,1.1,0.4,1.8,1,1.8c0.7,0,1-0.7,1-1.8c0-1-0.3-1.8-1-1.8
			C285.8,276.7,285.4,277.5,285.4,278.5z M286.5,285.2l5.3-9.4h1l-5.3,9.4H286.5z M295.1,282.2c0,1.9-1.1,2.9-2.4,2.9
			c-1.3,0-2.3-1-2.3-2.7c0-1.7,1-2.9,2.4-2.9C294.2,279.5,295.1,280.6,295.1,282.2z M291.7,282.3c0,1,0.4,1.8,1,1.8
			c0.7,0,1-0.7,1-1.8c0-1-0.3-1.8-1-1.8C292.1,280.5,291.7,281.3,291.7,282.3z"/>
	</g>
	<g>
		<path class="st8" d="M36.8,277.5L36.8,277.5l-1.7,0.8l-0.3-1.3l2.2-1.1h1.4v9.1h-1.7V277.5z"/>
		<path class="st8" d="M47.5,277.1c-0.3,0-0.5,0-0.9,0c-1.9,0.2-2.8,1.4-3.1,2.7h0c0.4-0.5,1.1-0.9,2-0.9c1.6,0,2.8,1.1,2.8,3
			c0,1.7-1.3,3.2-3.2,3.2c-2.2,0-3.4-1.7-3.4-3.9c0-1.8,0.6-3.2,1.6-4.1c0.8-0.8,1.9-1.2,3.2-1.3c0.4,0,0.7,0,0.9,0L47.5,277.1z
			 M46.7,282c0-1.1-0.6-1.8-1.6-1.8c-0.6,0-1.2,0.4-1.5,0.9c-0.1,0.1-0.1,0.3-0.1,0.5c0,1.2,0.6,2.2,1.7,2.2
			C46.1,283.9,46.7,283.1,46.7,282z"/>
		<path class="st8" d="M49.9,284.1c0-0.6,0.4-1.1,1.1-1.1c0.6,0,1.1,0.4,1.1,1.1c0,0.6-0.4,1.1-1.1,1.1
			C50.4,285.2,49.9,284.7,49.9,284.1z"/>
		<path class="st8" d="M59.7,275.9v1.1l-3.9,8H54l3.8-7.6v0h-4.3v-1.4H59.7z"/>
		<path class="st8" d="M65.8,278.4c0,1.9-1.1,2.9-2.4,2.9c-1.3,0-2.3-1-2.3-2.7c0-1.7,1-2.9,2.4-2.9
			C64.9,275.7,65.8,276.8,65.8,278.4z M62.4,278.5c0,1.1,0.4,1.8,1.1,1.8c0.7,0,1-0.7,1-1.8c0-1-0.3-1.8-1-1.8
			C62.8,276.7,62.4,277.5,62.4,278.5z M63.5,285.2l5.3-9.4h1l-5.3,9.4H63.5z M72.1,282.2c0,1.9-1.1,2.9-2.4,2.9
			c-1.3,0-2.3-1-2.3-2.7c0-1.7,1-2.9,2.4-2.9C71.2,279.5,72.1,280.6,72.1,282.2z M68.7,282.3c0,1,0.4,1.8,1.1,1.8c0.7,0,1-0.7,1-1.8
			c0-1-0.3-1.8-1-1.8C69,280.5,68.7,281.3,68.7,282.3z"/>
	</g>
	<g>
		<path class="st8" d="M183.8,277.5L183.8,277.5l-1.7,0.8l-0.3-1.3l2.2-1.1h1.4v9.1h-1.7V277.5z"/>
		<path class="st8" d="M194.5,277.1c-0.3,0-0.5,0-0.9,0c-1.9,0.2-2.8,1.4-3.1,2.7h0c0.4-0.5,1.1-0.9,2-0.9c1.6,0,2.8,1.1,2.8,3
			c0,1.7-1.3,3.2-3.2,3.2c-2.2,0-3.4-1.7-3.4-3.9c0-1.8,0.6-3.2,1.6-4.1c0.8-0.8,1.9-1.2,3.2-1.3c0.4,0,0.7,0,0.9,0L194.5,277.1z
			 M193.7,282c0-1.1-0.6-1.8-1.6-1.8c-0.6,0-1.2,0.4-1.5,0.9c-0.1,0.1-0.1,0.3-0.1,0.5c0,1.2,0.6,2.2,1.7,2.2
			C193.1,283.9,193.7,283.1,193.7,282z"/>
		<path class="st8" d="M196.9,284.1c0-0.6,0.4-1.1,1.1-1.1c0.6,0,1.1,0.4,1.1,1.1c0,0.6-0.4,1.1-1.1,1.1
			C197.4,285.2,196.9,284.7,196.9,284.1z"/>
		<path class="st8" d="M206.7,275.9v1.1l-3.9,8h-1.8l3.8-7.6v0h-4.3v-1.4H206.7z"/>
		<path class="st8" d="M212.8,278.4c0,1.9-1.1,2.9-2.4,2.9c-1.3,0-2.3-1-2.3-2.7c0-1.7,1-2.9,2.4-2.9
			C211.9,275.7,212.8,276.8,212.8,278.4z M209.4,278.5c0,1.1,0.4,1.8,1,1.8c0.7,0,1-0.7,1-1.8c0-1-0.3-1.8-1-1.8
			C209.8,276.7,209.4,277.5,209.4,278.5z M210.5,285.2l5.3-9.4h1l-5.3,9.4H210.5z M219.1,282.2c0,1.9-1.1,2.9-2.4,2.9
			c-1.3,0-2.3-1-2.3-2.7c0-1.7,1-2.9,2.4-2.9C218.2,279.5,219.1,280.6,219.1,282.2z M215.7,282.3c0,1,0.4,1.8,1,1.8
			c0.7,0,1-0.7,1-1.8c0-1-0.3-1.8-1-1.8C216.1,280.5,215.7,281.3,215.7,282.3z"/>
	</g>
	<polyline class="st9" points="30.2,294 27.7,291.6 30.2,289.1 	"/>
	<polyline class="st9" points="72.5,289.1 75,291.6 72.5,294 	"/>
	<line class="st9" x1="28" y1="291.6" x2="74.8" y2="291.6"/>
	<polyline class="st9" points="178.1,294 175.6,291.6 178.1,289.1 	"/>
	<polyline class="st9" points="220.5,289.1 223,291.6 220.5,294 	"/>
	<line class="st9" x1="175.4" y1="291.6" x2="222.5" y2="291.6"/>
	<polyline class="st9" points="79.7,294 77.2,291.6 79.7,289.1 	"/>
	<polyline class="st9" points="170.8,289.1 173.3,291.6 170.8,294 	"/>
	<line class="st9" x1="77.1" y1="291.6" x2="173" y2="291.6"/>
	<polyline class="st9" points="227.6,294 225.1,291.6 227.6,289.1 	"/>
	<polyline class="st9" points="319.1,289.1 321.6,291.6 319.1,294 	"/>
	<line class="st9" x1="225" y1="291.6" x2="321.1" y2="291.6"/>
	<g>
	</g>
	<g>
	</g>
	<g>
	</g>
	<g>
	</g>
	<g>
	</g>
	<g>
	</g>
	<g>
	</g>
	<g>
	</g>
	<g>
	</g>
	<g>
	</g>
</g>
</svg>
